<svg width="48" height="48" viewBox="0 0 48 48" fill="none" xmlns="http://www.w3.org/2000/svg">
<g clip-path="url(#clip0_203_96657)">
<circle cx="24" cy="24" r="24" fill="white" fill-opacity="0.3"/>
<path d="M31.4541 11.5294C31.5893 11.3863 31.6951 11.2179 31.7652 11.0339C31.8354 10.8499 31.8687 10.6539 31.8631 10.4571C31.8576 10.2603 31.8133 10.0664 31.7328 9.88672C31.6523 9.70699 31.5372 9.54488 31.3941 9.40963C31.251 9.27439 31.0826 9.16865 30.8987 9.09847C30.7147 9.02829 30.5187 8.99503 30.3218 9.0006C30.125 9.00617 29.9312 9.05045 29.7514 9.13092C29.5717 9.21139 29.4096 9.32648 29.2744 9.4696L16.5318 22.9617C16.2687 23.24 16.1221 23.6085 16.1221 23.9916C16.1221 24.3746 16.2687 24.7431 16.5318 25.0215L29.2744 38.515C29.4087 38.6613 29.5708 38.7794 29.7512 38.8625C29.9316 38.9456 30.1267 38.992 30.3251 38.9991C30.5236 39.0061 30.7215 38.9736 30.9073 38.9036C31.0932 38.8335 31.2632 38.7272 31.4076 38.5908C31.552 38.4545 31.6679 38.2908 31.7485 38.1093C31.8291 37.9278 31.8728 37.7321 31.8771 37.5335C31.8815 37.335 31.8463 37.1375 31.7737 36.9527C31.701 36.7678 31.5924 36.5993 31.4541 36.4568L19.683 23.9916L31.4541 11.5294Z" fill="black"/>
</g>
<defs>
<clipPath id="clip0_203_96657">
<rect width="48" height="48" fill="white"/>
</clipPath>
</defs>
</svg>
