<svg width="24" height="25" viewBox="0 0 24 25" fill="none" xmlns="http://www.w3.org/2000/svg">
<path fill-rule="evenodd" clip-rule="evenodd" d="M11.9998 14.2994C13.1137 14.2994 14.182 13.8569 14.9697 13.0693C15.7573 12.2816 16.1998 11.2133 16.1998 10.0994C16.1998 8.9855 15.7573 7.91722 14.9697 7.12957C14.182 6.34191 13.1137 5.89941 11.9998 5.89941C10.8859 5.89941 9.81761 6.34191 9.02996 7.12957C8.2423 7.91722 7.7998 8.9855 7.7998 10.0994C7.7998 11.2133 8.2423 12.2816 9.02996 13.0693C9.81761 13.8569 10.8859 14.2994 11.9998 14.2994ZM11.9998 8.29941C12.4772 8.29941 12.935 8.48906 13.2726 8.82662C13.6102 9.16419 13.7998 9.62202 13.7998 10.0994C13.7998 10.5768 13.6102 11.0346 13.2726 11.3722C12.935 11.7098 12.4772 11.8994 11.9998 11.8994C11.5224 11.8994 11.0646 11.7098 10.727 11.3722C10.3894 11.0346 10.1998 10.5768 10.1998 10.0994C10.1998 9.62202 10.3894 9.16419 10.727 8.82662C11.0646 8.48906 11.5224 8.29941 11.9998 8.29941Z" fill="black"/>
<path fill-rule="evenodd" clip-rule="evenodd" d="M3 10.2472C3 15.3388 8.2584 23.8996 12 23.8996C15.7416 23.8996 21 15.3388 21 10.2472C21 5.20001 16.9752 1.09961 12 1.09961C7.0248 1.09961 3 5.20001 3 10.2472ZM18.6 10.2472C18.6 14.1832 14.106 21.4996 12 21.4996C9.894 21.4996 5.4 14.1832 5.4 10.2472C5.4 6.51521 8.3604 3.49961 12 3.49961C15.6396 3.49961 18.6 6.51521 18.6 10.2472Z" fill="black"/>
</svg>
