<svg width="14" height="19" viewBox="0 0 14 19" fill="none" xmlns="http://www.w3.org/2000/svg">
<path fill-rule="evenodd" clip-rule="evenodd" d="M7.00007 10.5919C7.86644 10.5919 8.69733 10.2478 9.30995 9.63514C9.92257 9.02252 10.2667 8.19163 10.2667 7.32526C10.2667 6.45889 9.92257 5.628 9.30995 5.01538C8.69733 4.40276 7.86644 4.05859 7.00007 4.05859C6.13369 4.05859 5.3028 4.40276 4.69018 5.01538C4.07756 5.628 3.7334 6.45889 3.7334 7.32526C3.7334 8.19163 4.07756 9.02252 4.69018 9.63514C5.3028 10.2478 6.13369 10.5919 7.00007 10.5919ZM7.00007 5.92526C7.37137 5.92526 7.72746 6.07276 7.99002 6.33531C8.25257 6.59786 8.40007 6.95396 8.40007 7.32526C8.40007 7.69656 8.25257 8.05266 7.99002 8.31521C7.72746 8.57776 7.37137 8.72526 7.00007 8.72526C6.62876 8.72526 6.27267 8.57776 6.01012 8.31521C5.74756 8.05266 5.60007 7.69656 5.60007 7.32526C5.60007 6.95396 5.74756 6.59786 6.01012 6.33531C6.27267 6.07276 6.62876 5.92526 7.00007 5.92526Z" fill="#555555"/>
<path fill-rule="evenodd" clip-rule="evenodd" d="M0 7.43902C0 11.3992 4.08987 18.0576 7 18.0576C9.91013 18.0576 14 11.3992 14 7.43902C14 3.51342 10.8696 0.324219 7 0.324219C3.1304 0.324219 0 3.51342 0 7.43902ZM12.1333 7.43902C12.1333 10.5004 8.638 16.1909 7 16.1909C5.362 16.1909 1.86667 10.5004 1.86667 7.43902C1.86667 4.53635 4.1692 2.19089 7 2.19089C9.8308 2.19089 12.1333 4.53635 12.1333 7.43902Z" fill="#555555"/>
</svg>
