<svg width="48" height="48" viewBox="0 0 48 48" fill="none" xmlns="http://www.w3.org/2000/svg">
<g clip-path="url(#clip0_203_96678)">
<circle cx="24" cy="24" r="24" transform="matrix(-1 0 0 1 48 0)" fill="white" fill-opacity="0.3"/>
<path d="M16.5459 11.5294C16.4107 11.3863 16.3049 11.2179 16.2348 11.0339C16.1646 10.8499 16.1313 10.6539 16.1369 10.4571C16.1424 10.2603 16.1867 10.0664 16.2672 9.88672C16.3477 9.70699 16.4628 9.54488 16.6059 9.40963C16.749 9.27439 16.9174 9.16865 17.1013 9.09847C17.2853 9.02829 17.4813 8.99503 17.6782 9.0006C17.875 9.00617 18.0688 9.05045 18.2486 9.13092C18.4283 9.21139 18.5904 9.32648 18.7256 9.4696L31.4682 22.9617C31.7313 23.24 31.8779 23.6085 31.8779 23.9916C31.8779 24.3746 31.7313 24.7431 31.4682 25.0215L18.7256 38.515C18.5913 38.6613 18.4292 38.7794 18.2488 38.8625C18.0684 38.9456 17.8733 38.992 17.6749 38.9991C17.4764 39.0061 17.2785 38.9736 17.0927 38.9036C16.9068 38.8335 16.7368 38.7272 16.5924 38.5908C16.448 38.4545 16.3321 38.2908 16.2515 38.1093C16.1709 37.9278 16.1272 37.7321 16.1229 37.5335C16.1185 37.335 16.1537 37.1375 16.2263 36.9527C16.299 36.7678 16.4076 36.5993 16.5459 36.4568L28.317 23.9916L16.5459 11.5294Z" fill="black"/>
</g>
<defs>
<clipPath id="clip0_203_96678">
<rect width="48" height="48" fill="white" transform="matrix(-1 0 0 1 48 0)"/>
</clipPath>
</defs>
</svg>
