<svg width="48" height="48" viewBox="0 0 48 48" fill="none" xmlns="http://www.w3.org/2000/svg">
<g clip-path="url(#clip0_7_8439)">
<path d="M26.9972 18C24.4724 18.0001 22.0321 18.9099 20.1236 20.5628C18.215 22.2158 16.9659 24.5011 16.6052 27H16.5002C14.5111 27 12.6034 27.7902 11.1969 29.1967C9.7904 30.6032 9.00022 32.5109 9.00022 34.5C9.00022 36.4891 9.7904 38.3968 11.1969 39.8033C12.6034 41.2098 14.5111 42 16.5002 42H37.5002C39.4893 42 41.397 41.2098 42.8035 39.8033C44.21 38.3968 45.0002 36.4891 45.0002 34.5C45.0002 32.5109 44.21 30.6032 42.8035 29.1967C41.397 27.7902 39.4893 27 37.5002 27H37.3892C37.0286 24.5016 35.78 22.2167 33.872 20.5638C31.9641 18.911 29.5245 18.0008 27.0002 18M26.3642 8.46C26.4568 8.28606 26.5142 8.0956 26.5332 7.89947C26.5522 7.70335 26.5323 7.5054 26.4748 7.31695C26.4173 7.12849 26.3232 6.95321 26.1979 6.80111C26.0727 6.64902 25.9187 6.52308 25.7447 6.4305C25.5708 6.33792 25.3803 6.2805 25.1842 6.26153C24.9881 6.24256 24.7901 6.2624 24.6017 6.31993C24.4132 6.37745 24.2379 6.47153 24.0858 6.5968C23.9337 6.72207 23.8078 6.87606 23.7152 7.05L22.4372 9.459C22.2502 9.81028 22.2105 10.2214 22.3267 10.6021C22.4428 10.9827 22.7054 11.3015 23.0567 11.4885C23.408 11.6755 23.8192 11.7153 24.1998 11.5991C24.5804 11.4829 24.8992 11.2203 25.0862 10.869L26.3642 8.46ZM15.0482 6.219C14.9905 6.03049 14.8962 5.85519 14.7708 5.70311C14.6453 5.55104 14.4911 5.42516 14.317 5.33267C14.1429 5.24019 13.9523 5.1829 13.756 5.16408C13.5598 5.14526 13.3617 5.16528 13.1732 5.223C12.9847 5.28072 12.8094 5.375 12.6573 5.50046C12.5053 5.62592 12.3794 5.78011 12.2869 5.95422C12.1944 6.12833 12.1371 6.31895 12.1183 6.5152C12.0995 6.71145 12.1195 6.90949 12.1772 7.098L12.9782 9.708C13.0992 10.083 13.3629 10.3953 13.7122 10.5775C14.0616 10.7597 14.4686 10.7971 14.8453 10.6816C15.222 10.5662 15.5382 10.3071 15.7255 9.96046C15.9128 9.6138 15.9561 9.20737 15.8462 8.829L15.0482 6.219ZM9.00022 21C9.00022 22.812 9.53722 24.498 10.4582 25.911C11.5592 25.134 12.8192 24.561 14.1782 24.258C14.9579 21.9116 16.3656 19.8238 18.2485 18.2212C20.1314 16.6186 22.4174 15.5627 24.8582 15.168C23.6651 13.764 22.0698 12.7601 20.2878 12.2918C18.5058 11.8235 16.623 11.9133 14.8938 12.5493C13.1645 13.1853 11.6721 14.3366 10.6181 15.8479C9.56418 17.3592 8.99944 19.1575 9.00022 21ZM5.46022 12.642C5.28629 12.5494 5.09582 12.492 4.89969 12.473C4.70357 12.4541 4.50563 12.4739 4.31717 12.5314C4.12872 12.589 3.95343 12.683 3.80134 12.8083C3.64924 12.9336 3.52331 13.0876 3.43072 13.2615C3.33814 13.4354 3.28073 13.6259 3.26175 13.822C3.24278 14.0182 3.26263 14.2161 3.32015 14.4046C3.37768 14.593 3.47176 14.7683 3.59703 14.9204C3.72229 15.0725 3.87629 15.1984 4.05022 15.291L6.45922 16.569C6.8105 16.756 7.22167 16.7958 7.60228 16.6796C7.98288 16.5634 8.30175 16.3008 8.48872 15.9495C8.6757 15.5982 8.71548 15.1871 8.5993 14.8064C8.48312 14.4258 8.2205 14.107 7.86922 13.92L5.46022 12.642ZM6.70822 26.031C7.08321 25.91 7.39554 25.6464 7.57772 25.297C7.75991 24.9476 7.79731 24.5406 7.68185 24.1639C7.56639 23.7872 7.30734 23.471 6.96068 23.2837C6.61402 23.0964 6.2076 23.0531 5.82922 23.163L3.21922 23.961C3.02828 24.0165 2.85028 24.1093 2.69556 24.2342C2.54084 24.3591 2.41249 24.5135 2.31798 24.6885C2.22347 24.8634 2.16468 25.0554 2.14504 25.2532C2.12539 25.4511 2.14528 25.6509 2.20354 25.841C2.26181 26.0311 2.35728 26.2077 2.48443 26.3606C2.61157 26.5135 2.76783 26.6395 2.94413 26.7315C3.12044 26.8234 3.31326 26.8794 3.51139 26.8961C3.70951 26.9129 3.90899 26.89 4.09822 26.829L6.70822 26.031Z" fill="#1E1E1E"/>
</g>
<defs>
<clipPath id="clip0_7_8439">
<rect width="48" height="48" fill="white"/>
</clipPath>
</defs>
</svg>
