<svg width="48" height="48" viewBox="0 0 48 48" fill="none" xmlns="http://www.w3.org/2000/svg">
<path d="M26.3997 16.7996C32.3157 16.7996 35.6709 20.5772 36.1581 25.1372H36.3069C40.1133 25.1372 43.1997 28.106 43.1997 31.7684C43.1997 35.4308 40.1133 38.3996 36.3069 38.3996H16.4925C12.6861 38.3996 9.59972 35.4308 9.59972 31.7684C9.59972 28.106 12.6861 25.1372 16.4925 25.1372H16.6413C17.1333 20.546 20.4837 16.7996 26.3997 16.7996ZM20.1405 9.59961C23.6349 9.59961 26.6829 11.5868 28.1877 14.5076C27.5945 14.4345 26.9974 14.3985 26.3997 14.3996C20.6637 14.3996 16.4829 17.5364 14.9901 22.286L14.8413 22.7996L14.7309 23.2484L14.3349 23.3204C12.8853 23.6148 11.5311 24.2639 10.3936 25.2096C9.25613 26.1552 8.3707 27.3681 7.81652 28.7396C6.67319 28.043 5.78181 26.9999 5.27198 25.762C4.76215 24.524 4.66043 23.1557 4.98162 21.856C5.3028 20.5563 6.03015 19.3929 7.05792 18.5349C8.0857 17.6769 9.36032 17.1691 10.6965 17.0852L11.2293 17.0732C11.5994 14.9788 12.6955 13.0817 14.3251 11.715C15.9547 10.3483 18.0137 9.59932 20.1405 9.59961Z" fill="#1E1E1E"/>
</svg>
