<svg width="200" height="200" viewBox="0 0 200 200" fill="none" xmlns="http://www.w3.org/2000/svg">
<g clip-path="url(#clip0_7_450)">
<g filter="url(#filter0_di_7_450)">
<path d="M192 124C192 146.091 174.091 164 152 164C129.909 164 112 146.091 112 124C112 101.909 129.909 84 152 84C174.091 84 192 101.909 192 124Z" fill="#DADADA"/>
<path d="M165 104C165 137.137 138.137 164 105 164C71.8629 164 45 137.137 45 104C45 70.8629 71.8629 44 105 44C138.137 44 165 70.8629 165 104Z" fill="#DADADA"/>
<path d="M96 119C96 143.853 75.8528 164 51 164C26.1472 164 6 143.853 6 119C6 94.1472 26.1472 74 51 74C75.8528 74 96 94.1472 96 119Z" fill="#DADADA"/>
<path d="M51 131H152V164H51V131Z" fill="#DADADA"/>
</g>
</g>
<defs>
<filter id="filter0_di_7_450" x="-4" y="38" width="206" height="140" filterUnits="userSpaceOnUse" color-interpolation-filters="sRGB">
<feFlood flood-opacity="0" result="BackgroundImageFix"/>
<feColorMatrix in="SourceAlpha" type="matrix" values="0 0 0 0 0 0 0 0 0 0 0 0 0 0 0 0 0 0 127 0" result="hardAlpha"/>
<feOffset dy="4"/>
<feGaussianBlur stdDeviation="5"/>
<feComposite in2="hardAlpha" operator="out"/>
<feColorMatrix type="matrix" values="0 0 0 0 0 0 0 0 0 0 0 0 0 0 0 0 0 0 0.1 0"/>
<feBlend mode="normal" in2="BackgroundImageFix" result="effect1_dropShadow_7_450"/>
<feBlend mode="normal" in="SourceGraphic" in2="effect1_dropShadow_7_450" result="shape"/>
<feColorMatrix in="SourceAlpha" type="matrix" values="0 0 0 0 0 0 0 0 0 0 0 0 0 0 0 0 0 0 127 0" result="hardAlpha"/>
<feOffset dx="-2" dy="5"/>
<feGaussianBlur stdDeviation="2"/>
<feComposite in2="hardAlpha" operator="arithmetic" k2="-1" k3="1"/>
<feColorMatrix type="matrix" values="0 0 0 0 0 0 0 0 0 0 0 0 0 0 0 0 0 0 0.05 0"/>
<feBlend mode="normal" in2="shape" result="effect2_innerShadow_7_450"/>
</filter>
<clipPath id="clip0_7_450">
<rect width="200" height="200" fill="white"/>
</clipPath>
</defs>
</svg>
