<svg width="200" height="200" viewBox="0 0 200 200" fill="none" xmlns="http://www.w3.org/2000/svg">
<g filter="url(#filter0_i_7_457)">
<path d="M22.3891 104.492C19.2036 101.309 19.2036 96.1489 22.3891 92.966L56.9955 58.3872C60.181 55.2043 65.3456 55.2043 68.531 58.3872C71.7164 61.5701 71.7164 66.7306 68.531 69.9135L33.9246 104.492C30.7391 107.675 25.5745 107.675 22.3891 104.492Z" fill="#9BACC0"/>
<path d="M79.4868 122.237C76.3014 119.054 76.3014 113.894 79.4868 110.711L114.093 76.1319C117.279 72.949 122.443 72.949 125.629 76.1319C128.814 79.3148 128.814 84.4753 125.629 87.6582L91.0223 122.237C87.8368 125.42 82.6722 125.42 79.4868 122.237Z" fill="#9BACC0"/>
<path d="M95.8004 142.613C92.615 139.43 92.615 134.269 95.8004 131.087L136.175 90.7445C139.36 87.5616 144.525 87.5616 147.71 90.7445C150.896 93.9274 150.896 99.0879 147.71 102.271L107.336 142.613C104.15 145.796 98.9859 145.796 95.8004 142.613Z" fill="#9BACC0"/>
<path d="M143.004 129.736C139.819 126.553 139.819 121.392 143.004 118.209L166.075 95.1567C169.261 91.9738 174.425 91.9738 177.611 95.1567C180.796 98.3396 180.796 103.5 177.611 106.683L154.54 129.736C151.355 132.919 146.19 132.919 143.004 129.736Z" fill="#9BACC0"/>
<path d="M66.2114 135.502C63.026 132.319 63.026 127.158 66.2114 123.976C69.3969 120.793 74.5615 120.793 77.7469 123.976C80.9324 127.158 80.9324 132.319 77.7469 135.502C74.5615 138.685 69.3969 138.685 66.2114 135.502Z" fill="#9BACC0"/>
<path d="M148.82 87.6582C145.634 84.4753 145.634 79.3148 148.82 76.1319L154.588 70.3687C157.773 67.1858 162.938 67.1858 166.123 70.3687C169.308 73.5516 169.308 78.7121 166.123 81.895L160.355 87.6582C157.17 90.8411 152.005 90.8411 148.82 87.6582Z" fill="#9BACC0"/>
<path d="M22.3891 140.515C19.2036 137.332 19.2036 132.172 22.3891 128.989L91.602 59.8312C94.7874 56.6483 99.952 56.6483 103.137 59.8312C106.323 63.0141 106.323 68.1746 103.137 71.3575L33.9246 140.515C30.7391 143.698 25.5745 143.698 22.3891 140.515Z" fill="#9BACC0"/>
</g>
<defs>
<filter id="filter0_i_7_457" x="18" y="56" width="162" height="91" filterUnits="userSpaceOnUse" color-interpolation-filters="sRGB">
<feFlood flood-opacity="0" result="BackgroundImageFix"/>
<feBlend mode="normal" in="SourceGraphic" in2="BackgroundImageFix" result="shape"/>
<feColorMatrix in="SourceAlpha" type="matrix" values="0 0 0 0 0 0 0 0 0 0 0 0 0 0 0 0 0 0 127 0" result="hardAlpha"/>
<feOffset dx="-2" dy="5"/>
<feGaussianBlur stdDeviation="1"/>
<feComposite in2="hardAlpha" operator="arithmetic" k2="-1" k3="1"/>
<feColorMatrix type="matrix" values="0 0 0 0 0 0 0 0 0 0 0 0 0 0 0 0 0 0 0.15 0"/>
<feBlend mode="normal" in2="shape" result="effect1_innerShadow_7_457"/>
</filter>
</defs>
</svg>
