<svg width="48" height="48" viewBox="0 0 48 48" fill="none" xmlns="http://www.w3.org/2000/svg">
<path d="M4.58579 24.8995C3.80474 24.1184 3.80474 22.8521 4.58579 22.0711L13.0711 13.5858C13.8521 12.8047 15.1184 12.8047 15.8995 13.5858C16.6805 14.3668 16.6805 15.6332 15.8995 16.4142L7.41421 24.8995C6.63316 25.6805 5.36683 25.6805 4.58579 24.8995Z" fill="black"/>
<path d="M18.5858 29.2539C17.8047 28.4728 17.8047 27.2065 18.5858 26.4254L27.0711 17.9401C27.8521 17.1591 29.1184 17.1591 29.8995 17.9401C30.6805 18.7212 30.6805 19.9875 29.8995 20.7686L21.4142 29.2539C20.6332 30.0349 19.3668 30.0349 18.5858 29.2539Z" fill="black"/>
<path d="M22.5858 34.2539C21.8047 33.4728 21.8047 32.2065 22.5858 31.4254L32.4853 21.5259C33.2663 20.7449 34.5327 20.7449 35.3137 21.5259C36.0948 22.307 36.0948 23.5733 35.3137 24.3544L25.4142 34.2539C24.6332 35.0349 23.3668 35.0349 22.5858 34.2539Z" fill="black"/>
<path d="M34.1599 31.0939C33.3789 30.3129 33.3789 29.0465 34.1599 28.2655L39.8168 22.6086C40.5978 21.8276 41.8641 21.8276 42.6452 22.6086C43.4262 23.3897 43.4262 24.656 42.6452 25.4371L36.9883 31.0939C36.2073 31.875 34.941 31.875 34.1599 31.0939Z" fill="black"/>
<path d="M15.3308 32.5089C14.5497 31.7279 14.5497 30.4615 15.3308 29.6805C16.1118 28.8994 17.3781 28.8994 18.1592 29.6805C18.9402 30.4615 18.9402 31.7279 18.1592 32.5089C17.3781 33.2899 16.1118 33.2899 15.3308 32.5089Z" fill="black"/>
<path d="M35.5858 20.7686C34.8047 19.9875 34.8047 18.7212 35.5858 17.9401L37 16.5259C37.781 15.7449 39.0474 15.7449 39.8284 16.5259C40.6095 17.307 40.6095 18.5733 39.8284 19.3544L38.4142 20.7686C37.6332 21.5496 36.3668 21.5496 35.5858 20.7686Z" fill="black"/>
<path d="M4.58579 33.7391C3.80474 32.9581 3.80474 31.6918 4.58579 30.9107L21.5563 13.9401C22.3374 13.1591 23.6037 13.1591 24.3848 13.9401C25.1658 14.7212 25.1658 15.9875 24.3848 16.7686L7.41421 33.7391C6.63317 34.5202 5.36683 34.5202 4.58579 33.7391Z" fill="black"/>
</svg>
