<svg width="48" height="48" viewBox="0 0 48 48" fill="none" xmlns="http://www.w3.org/2000/svg">
<path d="M13.0909 26.8254C13.5731 26.8254 14.0356 27.017 14.3766 27.3581C14.7175 27.6992 14.9091 28.1618 14.9091 28.6442C14.9091 29.1265 14.7175 29.5892 14.3766 29.9302C14.0356 30.2713 13.5731 30.463 13.0909 30.463C11.8971 30.463 10.7149 30.2277 9.61197 29.7707C8.50901 29.3137 7.50683 28.6439 6.66267 27.7994C4.95779 26.094 4 23.7809 4 21.369C4 18.9572 4.95779 16.6441 6.66267 14.9387C8.36754 13.2332 10.6798 12.2751 13.0909 12.2751C14.9091 8.00099 19.0909 5 24 5C30.2364 5 35.3455 9.83796 35.8182 15.9673L36.7273 15.9127C38.6561 15.9127 40.506 16.6792 41.8699 18.0435C43.2338 19.4079 44 21.2583 44 23.1878C44 25.1173 43.2338 26.9678 41.8699 28.3321C40.506 29.6965 38.6561 30.463 36.7273 30.463H34.9091C34.4269 30.463 33.9644 30.2713 33.6234 29.9302C33.2825 29.5892 33.0909 29.1265 33.0909 28.6442C33.0909 28.1618 33.2825 27.6992 33.6234 27.3581C33.9644 27.017 34.4269 26.8254 34.9091 26.8254H36.7273C37.6917 26.8254 38.6166 26.4421 39.2986 25.76C39.9805 25.0778 40.3636 24.1526 40.3636 23.1878C40.3636 22.2231 39.9805 21.2979 39.2986 20.6157C38.6166 19.9335 37.6917 19.5503 36.7273 19.5503H33.0909V17.7315C33.0909 15.3196 32.1331 13.0065 30.4282 11.3011C28.7234 9.59567 26.4111 8.63756 24 8.63756C19.4545 8.63756 15.7273 11.9477 15.0182 16.2583C14.4182 16.04 13.7636 15.9127 13.0909 15.9127C11.6443 15.9127 10.2569 16.4876 9.23396 17.5108C8.21104 18.5341 7.63636 19.9219 7.63636 21.369C7.63636 22.8162 8.21104 24.204 9.23396 25.2273C10.2569 26.2505 11.6443 26.8254 13.0909 26.8254ZM16.5091 34.2278L20.4909 33.1911L17.5636 30.2447C16.8545 29.5536 16.8545 28.3895 17.5636 27.662C18.2727 26.9527 19.4545 26.9527 20.1455 27.662L23.0909 30.5903L24.1273 26.6071C24.1826 26.3694 24.2853 26.1453 24.4291 25.948C24.5729 25.7508 24.7549 25.5846 24.9642 25.4592C25.1736 25.3339 25.4061 25.252 25.6478 25.2184C25.8894 25.1848 26.1354 25.2002 26.371 25.2637C26.6066 25.3272 26.8271 25.4375 27.0192 25.588C27.2113 25.7385 27.3711 25.9261 27.4892 26.1398C27.6073 26.3534 27.6811 26.5886 27.7064 26.8314C27.7317 27.0741 27.7079 27.3195 27.6364 27.5529L26.5636 31.536L30.5455 30.463C30.7788 30.3914 31.0241 30.3676 31.2668 30.3929C31.5095 30.4182 31.7446 30.4921 31.9581 30.6102C32.1717 30.7283 32.3593 30.8882 32.5097 31.0803C32.6602 31.2725 32.7705 31.493 32.8339 31.7287C32.8974 31.9644 32.9128 32.2104 32.8792 32.4522C32.8456 32.694 32.7638 32.9265 32.6384 33.136C32.5131 33.3454 32.3469 33.5275 32.1498 33.6713C31.9526 33.8151 31.7286 33.9178 31.4909 33.9732L27.5091 35.0099L30.4364 37.9563C31.1455 38.6475 31.1455 39.8297 30.4364 40.539C29.7273 41.2483 28.5455 41.2483 27.8545 40.539L24.9091 37.6108L23.8727 41.5939C23.8174 41.8316 23.7147 42.0558 23.5709 42.253C23.4271 42.4502 23.2451 42.6164 23.0358 42.7418C22.8264 42.8672 22.5939 42.9491 22.3522 42.9827C22.1106 43.0163 21.8646 43.0009 21.629 42.9374C21.3934 42.8739 21.1729 42.7636 20.9808 42.6131C20.7887 42.4625 20.6289 42.2749 20.5108 42.0613C20.3927 41.8477 20.3189 41.6125 20.2936 41.3697C20.2683 41.1269 20.2921 40.8815 20.3636 40.6481L21.4364 36.665L17.4545 37.7381C17.2212 37.8096 16.9759 37.8335 16.7332 37.8082C16.4905 37.7829 16.2554 37.709 16.0419 37.5909C15.8283 37.4728 15.6407 37.3129 15.4903 37.1207C15.3398 36.9285 15.2295 36.708 15.1661 36.4723C15.1026 36.2367 15.0872 35.9906 15.1208 35.7488C15.1544 35.507 15.2362 35.2745 15.3616 35.0651C15.4869 34.8556 15.6531 34.6736 15.8502 34.5297C16.0474 34.3859 16.2714 34.2832 16.5091 34.2278Z" fill="#1E1E1E"/>
</svg>
