<svg width="200" height="200" viewBox="0 0 200 200" fill="none" xmlns="http://www.w3.org/2000/svg">
<g filter="url(#filter0_i_7_471)">
<path fill-rule="evenodd" clip-rule="evenodd" d="M100.092 7C102.501 7 104.811 7.95671 106.513 9.65966C108.216 11.3626 109.173 13.6723 109.173 16.0807V24.8163L115.112 21.6743C117.241 20.5484 119.73 20.3144 122.031 21.0237C124.333 21.733 126.259 23.3275 127.384 25.4564C128.51 27.5854 128.744 30.0745 128.035 32.376C127.326 34.6775 125.731 36.6031 123.602 37.729L109.173 45.3567V62.6281C115.666 64.299 121.45 67.7133 126.009 72.3535L140.974 63.7178L140.365 47.4089C140.275 45.0018 141.145 42.6574 142.783 40.8914C144.421 39.1255 146.694 38.0826 149.101 37.9923C151.508 37.902 153.852 38.7716 155.618 40.4098C157.384 42.0481 158.427 44.3208 158.517 46.7279L158.763 53.4476L166.327 49.0798C167.36 48.4741 168.503 48.0788 169.689 47.9166C170.876 47.7543 172.083 47.8284 173.24 48.1345C174.398 48.4406 175.484 48.9727 176.435 49.7001C177.387 50.4276 178.185 51.336 178.783 52.3731C179.382 53.4102 179.77 54.5555 179.924 55.7431C180.079 56.9306 179.997 58.137 179.683 59.2927C179.369 60.4485 178.83 61.5307 178.096 62.4772C177.362 63.4236 176.449 64.2156 175.408 64.8075L167.843 69.1662L173.537 72.744C174.547 73.3784 175.422 74.2055 176.113 75.1782C176.803 76.1508 177.295 77.2499 177.561 78.4127C177.826 79.5755 177.86 80.7792 177.661 81.9551C177.461 83.1311 177.032 84.2562 176.397 85.2662C175.763 86.2763 174.936 87.1514 173.963 87.8418C172.99 88.5322 171.891 89.0242 170.729 89.2899C169.566 89.5555 168.362 89.5895 167.186 89.3899C166.01 89.1903 164.885 88.761 163.875 88.1266L150.054 79.4455L135.098 88.0721C136.868 94.438 136.868 101.166 135.098 107.532L150.054 116.168L163.875 107.487C165.915 106.205 168.38 105.787 170.729 106.323C173.077 106.86 175.116 108.307 176.397 110.347C177.679 112.387 178.097 114.852 177.561 117.201C177.024 119.549 175.577 121.588 173.537 122.869L167.852 126.438L175.408 130.806C176.449 131.398 177.362 132.19 178.096 133.136C178.83 134.083 179.369 135.165 179.683 136.32C179.997 137.476 180.079 138.683 179.924 139.87C179.77 141.058 179.382 142.203 178.783 143.24C178.185 144.277 177.387 145.186 176.435 145.913C175.484 146.641 174.398 147.173 173.24 147.479C172.083 147.785 170.876 147.859 169.689 147.697C168.503 147.534 167.36 147.139 166.327 146.533L158.772 142.175L158.517 148.885C158.427 151.292 157.384 153.565 155.618 155.203C153.852 156.842 151.508 157.711 149.101 157.621C146.694 157.531 144.421 156.488 142.783 154.722C141.145 152.956 140.275 150.611 140.365 148.204L140.974 131.895L126.009 123.26C121.45 127.891 115.657 131.314 109.173 132.985V150.257L123.602 157.884C125.731 159.01 127.326 160.936 128.035 163.237C128.744 165.539 128.51 168.028 127.384 170.157C126.259 172.286 124.333 173.88 122.031 174.59C119.73 175.299 117.241 175.065 115.112 173.939L109.173 170.797V179.533C109.173 181.941 108.216 184.251 106.513 185.954C104.811 187.657 102.501 188.613 100.092 188.613C97.6842 188.613 95.3745 187.657 93.6715 185.954C91.9686 184.251 91.0118 181.941 91.0118 179.533V170.797L85.0731 173.939C84.0189 174.496 82.8653 174.841 81.678 174.952C80.4908 175.064 79.2931 174.941 78.1535 174.59C77.0139 174.238 75.9547 173.666 75.0362 172.906C74.1177 172.145 73.3581 171.211 72.8006 170.157C72.2431 169.103 71.8987 167.949 71.787 166.762C71.6754 165.574 71.7987 164.377 72.1499 163.237C72.5011 162.098 73.0733 161.038 73.8339 160.12C74.5945 159.201 75.5285 158.442 76.5827 157.884L91.0118 150.257V132.985C84.6195 131.331 78.799 127.965 74.1763 123.251L59.2114 131.895L59.8198 148.204C59.8639 149.396 59.6728 150.585 59.2575 151.703C58.8421 152.821 58.2106 153.846 57.399 154.72C56.5874 155.594 55.6116 156.3 54.5273 156.797C53.4431 157.294 52.2715 157.572 51.0796 157.616C49.8877 157.661 48.6988 157.469 47.5808 157.054C46.4627 156.639 45.4374 156.007 44.5634 155.196C43.6894 154.384 42.9839 153.408 42.487 152.324C41.9901 151.24 41.7116 150.068 41.6675 148.876L41.4223 142.166L33.8582 146.524C32.8244 147.164 31.6729 147.589 30.4717 147.776C29.2705 147.962 28.0441 147.905 26.8653 147.608C25.6865 147.312 24.5792 146.782 23.6091 146.049C22.639 145.317 21.8258 144.397 21.2178 143.344C20.6097 142.292 20.2192 141.128 20.0693 139.922C19.9194 138.715 20.0132 137.491 20.3452 136.322C20.6772 135.153 21.2405 134.062 22.0019 133.114C22.7633 132.167 23.7071 131.382 24.7775 130.806L32.3417 126.438L26.6481 122.86C24.6622 121.555 23.2671 119.523 22.7621 117.201C22.2572 114.879 22.6826 112.452 23.947 110.44C25.2115 108.428 27.2143 106.992 29.5256 106.439C31.837 105.887 34.2726 106.263 36.3099 107.487L50.1307 116.168L65.0866 107.532C63.3183 101.169 63.3183 94.4442 65.0866 88.0812L50.1307 79.4546L36.3099 88.1266C34.2726 89.3499 31.837 89.7258 29.5256 89.1737C27.2143 88.6216 25.2115 87.1855 23.947 85.1735C22.6826 83.1615 22.2572 80.734 22.7621 78.4119C23.2671 76.0898 24.6622 74.0582 26.6481 72.7531L32.3417 69.1753L24.7775 64.8166C22.6907 63.6124 21.1677 61.6286 20.5435 59.3015C19.9194 56.9744 20.2453 54.4947 21.4494 52.4078C22.6536 50.321 24.6374 48.798 26.9645 48.1739C29.2916 47.5498 31.7713 47.8756 33.8582 49.0798L41.4223 53.4476L41.6675 46.7279C41.7578 44.3208 42.8007 42.0481 44.5666 40.4098C45.4411 39.5987 46.4667 38.9677 47.585 38.5529C48.7032 38.1381 49.8923 37.9476 51.0842 37.9923C52.2761 38.037 53.4475 38.3161 54.5315 38.8135C55.6156 39.3109 56.591 40.017 57.4022 40.8914C58.2134 41.7658 58.8444 42.7915 59.2592 43.9097C59.674 45.028 59.8645 46.217 59.8198 47.4089L59.2114 63.7178L74.1763 72.3626C78.799 67.6479 84.6195 64.2824 91.0118 62.6281V45.3567L76.5827 37.729C74.4537 36.6031 72.8592 34.6775 72.1499 32.376C71.4406 30.0745 71.6747 27.5854 72.8006 25.4564C73.9265 23.3275 75.852 21.733 78.1535 21.0237C80.4551 20.3144 82.9441 20.5484 85.0731 21.6743L91.0118 24.8163V16.0807C91.0118 13.6723 91.9686 11.3626 93.6715 9.65966C95.3745 7.95671 97.6842 7 100.092 7ZM100.092 115.968C104.909 115.968 109.529 114.055 112.934 110.649C116.34 107.243 118.254 102.623 118.254 97.8066C118.254 92.9899 116.34 88.3705 112.934 84.9646C109.529 81.5587 104.909 79.6453 100.092 79.6453C95.2758 79.6453 90.6564 81.5587 87.2505 84.9646C83.8446 88.3705 81.9312 92.9899 81.9312 97.8066C81.9312 102.623 83.8446 107.243 87.2505 110.649C90.6564 114.055 95.2758 115.968 100.092 115.968Z" fill="white"/>
</g>
<defs>
<filter id="filter0_i_7_471" x="18" y="7" width="162" height="185.613" filterUnits="userSpaceOnUse" color-interpolation-filters="sRGB">
<feFlood flood-opacity="0" result="BackgroundImageFix"/>
<feBlend mode="normal" in="SourceGraphic" in2="BackgroundImageFix" result="shape"/>
<feColorMatrix in="SourceAlpha" type="matrix" values="0 0 0 0 0 0 0 0 0 0 0 0 0 0 0 0 0 0 127 0" result="hardAlpha"/>
<feOffset dx="-2" dy="5"/>
<feGaussianBlur stdDeviation="2"/>
<feComposite in2="hardAlpha" operator="arithmetic" k2="-1" k3="1"/>
<feColorMatrix type="matrix" values="0 0 0 0 0 0 0 0 0 0 0 0 0 0 0 0 0 0 0.15 0"/>
<feBlend mode="normal" in2="shape" result="effect1_innerShadow_7_471"/>
</filter>
</defs>
</svg>
