<svg width="48" height="48" viewBox="0 0 48 48" fill="none" xmlns="http://www.w3.org/2000/svg">
<g clip-path="url(#clip0_7_190)">
<path d="M23.9997 4.7998C24.318 4.7998 24.6232 4.92623 24.8483 5.15128C25.0733 5.37632 25.1997 5.68154 25.1997 5.9998V8.3998C25.1997 8.71806 25.0733 9.02329 24.8483 9.24833C24.6232 9.47338 24.318 9.5998 23.9997 9.5998C23.6815 9.5998 23.3763 9.47338 23.1512 9.24833C22.9262 9.02329 22.7997 8.71806 22.7997 8.3998V5.9998C22.7997 5.68154 22.9262 5.37632 23.1512 5.15128C23.3763 4.92623 23.6815 4.7998 23.9997 4.7998ZM33.5997 23.9998C33.5997 26.5459 32.5883 28.9877 30.788 30.788C28.9876 32.5884 26.5458 33.5998 23.9997 33.5998C21.4537 33.5998 19.0119 32.5884 17.2115 30.788C15.4112 28.9877 14.3997 26.5459 14.3997 23.9998C14.3997 21.4537 15.4112 19.0119 17.2115 17.2116C19.0119 15.4112 21.4537 14.3998 23.9997 14.3998C26.5458 14.3998 28.9876 15.4112 30.788 17.2116C32.5883 19.0119 33.5997 21.4537 33.5997 23.9998ZM41.9997 25.1998C42.318 25.1998 42.6232 25.0734 42.8483 24.8483C43.0733 24.6233 43.1997 24.3181 43.1997 23.9998C43.1997 23.6815 43.0733 23.3763 42.8483 23.1513C42.6232 22.9262 42.318 22.7998 41.9997 22.7998H39.5997C39.2815 22.7998 38.9763 22.9262 38.7512 23.1513C38.5262 23.3763 38.3997 23.6815 38.3997 23.9998C38.3997 24.3181 38.5262 24.6233 38.7512 24.8483C38.9763 25.0734 39.2815 25.1998 39.5997 25.1998H41.9997ZM23.9997 38.3998C24.318 38.3998 24.6232 38.5262 24.8483 38.7513C25.0733 38.9763 25.1997 39.2815 25.1997 39.5998V41.9998C25.1997 42.3181 25.0733 42.6233 24.8483 42.8483C24.6232 43.0734 24.318 43.1998 23.9997 43.1998C23.6815 43.1998 23.3763 43.0734 23.1512 42.8483C22.9262 42.6233 22.7997 42.3181 22.7997 41.9998V39.5998C22.7997 39.2815 22.9262 38.9763 23.1512 38.7513C23.3763 38.5262 23.6815 38.3998 23.9997 38.3998ZM8.39974 25.1998C8.718 25.1998 9.02322 25.0734 9.24827 24.8483C9.47331 24.6233 9.59974 24.3181 9.59974 23.9998C9.59974 23.6815 9.47331 23.3763 9.24827 23.1513C9.02322 22.9262 8.718 22.7998 8.39974 22.7998H5.91094C5.59268 22.7998 5.28745 22.9262 5.06241 23.1513C4.83737 23.3763 4.71094 23.6815 4.71094 23.9998C4.71094 24.3181 4.83737 24.6233 5.06241 24.8483C5.28745 25.0734 5.59268 25.1998 5.91094 25.1998H8.39974ZM9.95014 9.9502C10.0616 9.83845 10.194 9.74979 10.3398 9.68929C10.4856 9.6288 10.6419 9.59766 10.7997 9.59766C10.9576 9.59766 11.1139 9.6288 11.2597 9.68929C11.4054 9.74979 11.5379 9.83845 11.6493 9.9502L14.0493 12.3502C14.2747 12.5755 14.4013 12.8811 14.4013 13.1998C14.4013 13.5185 14.2747 13.8241 14.0493 14.0494C13.824 14.2747 13.5184 14.4013 13.1997 14.4013C12.8811 14.4013 12.5755 14.2747 12.3501 14.0494L9.95014 11.6494C9.83839 11.5379 9.74972 11.4055 9.68923 11.2597C9.62873 11.1139 9.59759 10.9576 9.59759 10.7998C9.59759 10.642 9.62873 10.4857 9.68923 10.3399C9.74972 10.1941 9.83839 10.0617 9.95014 9.9502ZM11.6493 38.0494C11.424 38.2747 11.1184 38.4013 10.7997 38.4013C10.4811 38.4013 10.1755 38.2747 9.95014 38.0494C9.72481 37.8241 9.59822 37.5185 9.59822 37.1998C9.59822 36.8811 9.72481 36.5755 9.95014 36.3502L12.3501 33.9502C12.5755 33.7249 12.8811 33.5983 13.1997 33.5983C13.5184 33.5983 13.824 33.7249 14.0493 33.9502C14.2747 34.1755 14.4013 34.4811 14.4013 34.7998C14.4013 35.1185 14.2747 35.4241 14.0493 35.6494L11.6493 38.0494ZM38.0493 9.9502C37.9379 9.83845 37.8054 9.74979 37.6597 9.68929C37.5139 9.6288 37.3576 9.59766 37.1997 9.59766C37.0419 9.59766 36.8856 9.6288 36.7398 9.68929C36.594 9.74979 36.4616 9.83845 36.3501 9.9502L33.9501 12.3502C33.7248 12.5755 33.5982 12.8811 33.5982 13.1998C33.5982 13.5185 33.7248 13.8241 33.9501 14.0494C34.1755 14.2747 34.4811 14.4013 34.7997 14.4013C35.1184 14.4013 35.424 14.2747 35.6493 14.0494L38.0493 11.6494C38.1611 11.5379 38.2498 11.4055 38.3102 11.2597C38.3707 11.1139 38.4019 10.9576 38.4019 10.7998C38.4019 10.642 38.3707 10.4857 38.3102 10.3399C38.2498 10.1941 38.1611 10.0617 38.0493 9.9502ZM36.3501 38.0494C36.5755 38.2747 36.8811 38.4013 37.1997 38.4013C37.5184 38.4013 37.824 38.2747 38.0493 38.0494C38.2747 37.8241 38.4013 37.5185 38.4013 37.1998C38.4013 36.8811 38.2747 36.5755 38.0493 36.3502L35.6493 33.9502C35.424 33.7249 35.1184 33.5983 34.7997 33.5983C34.4811 33.5983 34.1755 33.7249 33.9501 33.9502C33.7248 34.1755 33.5982 34.4811 33.5982 34.7998C33.5982 35.1185 33.7248 35.4241 33.9501 35.6494L36.3501 38.0494Z" fill="#1E1E1E"/>
</g>
<defs>
<clipPath id="clip0_7_190">
<rect width="48" height="48" fill="white"/>
</clipPath>
</defs>
</svg>
