<svg width="48" height="48" viewBox="0 0 48 48" fill="none" xmlns="http://www.w3.org/2000/svg">
<path d="M14.575 13.9489C14.9863 11.9087 16.1409 10.0939 17.8147 8.85684C19.4884 7.61974 21.562 7.04848 23.6332 7.2539C25.7043 7.45931 27.6253 8.42674 29.0235 9.9685C30.4216 11.5103 31.1972 13.5164 31.1998 15.5977C31.2001 16.701 30.9831 17.7936 30.5611 18.813C30.1391 19.8324 29.5204 20.7587 28.7404 21.539C27.9603 22.3192 27.0342 22.9382 26.0149 23.3605C24.9956 23.7828 23.9031 24.0001 22.7998 24.0001H6.5998C6.12242 24.0001 5.66458 23.8105 5.32701 23.4729C4.98945 23.1353 4.7998 22.6775 4.7998 22.2001C4.7998 21.7227 4.98945 21.2649 5.32701 20.9273C5.66458 20.5897 6.12242 20.4001 6.5998 20.4001H22.7998C24.0466 20.3613 25.2294 19.8389 26.0978 18.9435C26.9662 18.048 27.4522 16.8498 27.4528 15.6024C27.4534 14.355 26.9687 13.1563 26.1011 12.26C25.2336 11.3637 24.0514 10.8402 22.8046 10.8001C20.5198 10.8001 18.5518 12.4129 18.1054 14.6545L17.9638 15.3529C17.8566 15.8071 17.5772 16.2019 17.1845 16.454C16.7918 16.7062 16.3165 16.7959 15.8589 16.7044C15.4013 16.6129 14.9972 16.3472 14.7317 15.9635C14.4662 15.5797 14.3601 15.1078 14.4358 14.6473L14.575 13.9489ZM32.0638 22.4497C32.657 21.2669 33.6319 20.3187 34.8308 19.7585C36.0297 19.1984 37.3824 19.059 38.6703 19.363C39.9582 19.6669 41.106 20.3964 41.9279 21.4334C42.7499 22.4704 43.198 23.7544 43.1998 25.0777V25.2001C43.1998 26.7914 42.5677 28.3175 41.4424 29.4427C40.3172 30.568 38.7911 31.2001 37.1998 31.2001H35.0014C35.3425 32.0655 35.4669 33.0011 35.3638 33.9255C35.2607 34.8499 34.9332 35.7352 34.4098 36.5041C33.8865 37.2731 33.1831 37.9024 32.361 38.3375C31.5388 38.7725 30.6228 39 29.6926 39.0001C28.7532 39.001 27.8281 38.7702 26.9992 38.3281C26.1703 37.886 25.4632 37.2463 24.9406 36.4657L24.9046 36.4081C24.7649 36.212 24.6659 35.9898 24.6135 35.7548C24.5612 35.5197 24.5565 35.2765 24.5999 35.0397C24.6432 34.8028 24.7336 34.577 24.8658 34.3757C24.9979 34.1744 25.1691 34.0016 25.3693 33.8677C25.5694 33.7337 25.7944 33.6413 26.0308 33.5959C26.2673 33.5504 26.5105 33.5529 26.746 33.6031C26.9816 33.6534 27.2046 33.7504 27.402 33.8884C27.5993 34.0264 27.767 34.2026 27.895 34.4065L27.9334 34.4641C28.3246 35.0473 28.987 35.4001 29.6926 35.4001C29.9684 35.4006 30.2416 35.3467 30.4965 35.2416C30.7515 35.1365 30.9832 34.9822 31.1786 34.7876C31.3739 34.5929 31.529 34.3617 31.635 34.1071C31.7409 33.8525 31.7957 33.5795 31.7962 33.3037C31.7967 33.0279 31.7428 32.7548 31.6377 32.4998C31.5326 32.2448 31.3783 32.0131 31.1837 31.8177C30.989 31.6224 30.7578 31.4673 30.5032 31.3613C30.2486 31.2554 29.9756 31.2006 29.6998 31.2001H6.5998C6.12242 31.2001 5.66458 31.0105 5.32701 30.6729C4.98945 30.3353 4.7998 29.8775 4.7998 29.4001C4.7998 28.9227 4.98945 28.4649 5.32701 28.1273C5.66458 27.7897 6.12242 27.6001 6.5998 27.6001H37.1998C37.8363 27.6001 38.4468 27.3472 38.8969 26.8972C39.347 26.4471 39.5998 25.8366 39.5998 25.2001V25.0801C39.5991 24.5671 39.4254 24.0693 39.1068 23.6672C38.7882 23.2651 38.3433 22.9822 37.844 22.8642C37.3447 22.7463 36.8202 22.8001 36.3554 23.0172C35.8905 23.2342 35.5124 23.6016 35.2822 24.0601L35.2102 24.2041C35.1057 24.4175 34.9601 24.608 34.7816 24.7648C34.6032 24.9216 34.3954 25.0416 34.1704 25.1177C33.9454 25.1938 33.7075 25.2247 33.4705 25.2084C33.2335 25.1922 33.0021 25.1292 32.7895 25.0231C32.577 24.917 32.3876 24.7698 32.2321 24.5902C32.0767 24.4105 31.9584 24.2018 31.8841 23.9762C31.8097 23.7506 31.7807 23.5125 31.7988 23.2756C31.8169 23.0388 31.8816 22.8078 31.9894 22.5961L32.0638 22.4497Z" fill="#1E1E1E"/>
</svg>
