<svg width="200" height="200" viewBox="0 0 200 200" fill="none" xmlns="http://www.w3.org/2000/svg">
<g filter="url(#filter0_i_7_467)">
<g filter="url(#filter1_i_7_467)">
<path d="M60.73 61.9721C62.4439 53.4997 67.2546 45.9638 74.2285 40.8267C81.2025 35.6895 89.8425 33.3173 98.4723 34.1703C107.102 35.0233 115.106 39.0406 120.932 45.443C126.758 51.8453 129.989 60.176 130 68.8189C130.001 73.4005 129.097 77.9375 127.339 82.1707C125.58 86.4039 123.002 90.2504 119.752 93.4906C116.502 96.7307 112.643 99.301 108.396 101.055C104.149 102.808 99.5971 103.711 95 103.711H27.5C25.5109 103.711 23.6032 102.923 22.1967 101.521C20.7902 100.12 20 98.2185 20 96.2361C20 94.2537 20.7902 92.3525 22.1967 90.9507C23.6032 89.5489 25.5109 88.7614 27.5 88.7614H95C100.195 88.6003 105.123 86.4309 108.742 82.7125C112.36 78.9941 114.385 74.0184 114.388 68.8385C114.39 63.6586 112.37 58.6809 108.756 54.9589C105.141 51.2369 100.215 49.0626 95.02 48.8963C85.5 48.8963 77.3 55.5936 75.44 64.9021L74.85 67.8023C74.4033 69.6884 73.2391 71.3278 71.6029 72.3748C69.9667 73.4219 67.9864 73.7947 66.0797 73.4146C64.1731 73.0346 62.489 71.9314 61.3827 70.3377C60.2765 68.744 59.8345 66.7844 60.15 64.8722L60.73 61.9721ZM133.6 97.2726C136.072 92.3607 140.134 88.4233 145.129 86.0973C150.124 83.7712 155.761 83.1924 161.127 84.4545C166.493 85.7166 171.276 88.7459 174.701 93.0523C178.125 97.3587 179.992 102.691 180 108.186V108.694C180 115.302 177.366 121.639 172.678 126.312C167.989 130.985 161.63 133.61 155 133.61H145.84C147.261 137.203 147.78 141.088 147.35 144.927C146.92 148.766 145.556 152.442 143.375 155.635C141.194 158.828 138.264 161.442 134.838 163.248C131.412 165.055 127.596 165.999 123.72 166C119.806 166.004 115.951 165.045 112.497 163.209C109.044 161.374 106.097 158.717 103.92 155.476L103.77 155.236C103.188 154.422 102.775 153.499 102.557 152.523C102.339 151.547 102.32 150.537 102.5 149.554C102.681 148.57 103.058 147.633 103.608 146.797C104.159 145.961 104.872 145.243 105.706 144.687C106.54 144.131 107.477 143.747 108.463 143.558C109.448 143.37 110.461 143.38 111.443 143.588C112.424 143.797 113.353 144.2 114.176 144.773C114.998 145.346 115.697 146.078 116.23 146.925L116.39 147.164C118.02 149.586 120.78 151.051 123.72 151.051C124.869 151.053 126.007 150.829 127.07 150.392C128.132 149.956 129.098 149.315 129.912 148.507C130.725 147.699 131.372 146.738 131.813 145.681C132.255 144.624 132.483 143.49 132.485 142.345C132.487 141.2 132.263 140.065 131.825 139.007C131.387 137.948 130.744 136.986 129.933 136.174C129.122 135.363 128.158 134.719 127.097 134.279C126.036 133.839 124.899 133.612 123.75 133.61H27.5C25.5109 133.61 23.6032 132.822 22.1967 131.42C20.7902 130.019 20 128.117 20 126.135C20 124.152 20.7902 122.251 22.1967 120.849C23.6032 119.448 25.5109 118.66 27.5 118.66H155C157.652 118.66 160.196 117.61 162.071 115.741C163.946 113.872 165 111.337 165 108.694V108.196C164.997 106.065 164.273 103.998 162.946 102.328C161.618 100.658 159.765 99.4837 157.684 98.9939C155.604 98.504 153.418 98.7278 151.482 99.629C149.545 100.53 147.969 102.056 147.01 103.96L146.71 104.558C146.275 105.444 145.668 106.235 144.924 106.886C144.181 107.538 143.315 108.036 142.378 108.352C141.44 108.668 140.449 108.796 139.461 108.728C138.474 108.661 137.509 108.399 136.624 107.959C135.738 107.518 134.949 106.907 134.301 106.161C133.654 105.415 133.161 104.548 132.851 103.612C132.541 102.675 132.42 101.686 132.496 100.702C132.571 99.7187 132.841 98.7597 133.29 97.8805L133.6 97.2726Z" fill="#9B9DC0"/>
</g>
</g>
<defs>
<filter id="filter0_i_7_467" x="-2" y="0" width="202" height="204" filterUnits="userSpaceOnUse" color-interpolation-filters="sRGB">
<feFlood flood-opacity="0" result="BackgroundImageFix"/>
<feBlend mode="normal" in="SourceGraphic" in2="BackgroundImageFix" result="shape"/>
<feColorMatrix in="SourceAlpha" type="matrix" values="0 0 0 0 0 0 0 0 0 0 0 0 0 0 0 0 0 0 127 0" result="hardAlpha"/>
<feOffset dx="-2" dy="5"/>
<feGaussianBlur stdDeviation="2"/>
<feComposite in2="hardAlpha" operator="arithmetic" k2="-1" k3="1"/>
<feColorMatrix type="matrix" values="0 0 0 0 0 0 0 0 0 0 0 0 0 0 0 0 0 0 0.05 0"/>
<feBlend mode="normal" in2="shape" result="effect1_innerShadow_7_467"/>
</filter>
<filter id="filter1_i_7_467" x="18" y="34" width="162" height="136" filterUnits="userSpaceOnUse" color-interpolation-filters="sRGB">
<feFlood flood-opacity="0" result="BackgroundImageFix"/>
<feBlend mode="normal" in="SourceGraphic" in2="BackgroundImageFix" result="shape"/>
<feColorMatrix in="SourceAlpha" type="matrix" values="0 0 0 0 0 0 0 0 0 0 0 0 0 0 0 0 0 0 127 0" result="hardAlpha"/>
<feOffset dx="-2" dy="5"/>
<feGaussianBlur stdDeviation="2"/>
<feComposite in2="hardAlpha" operator="arithmetic" k2="-1" k3="1"/>
<feColorMatrix type="matrix" values="0 0 0 0 0 0 0 0 0 0 0 0 0 0 0 0 0 0 0.05 0"/>
<feBlend mode="normal" in2="shape" result="effect1_innerShadow_7_467"/>
</filter>
</defs>
</svg>
