<svg width="49" height="66" viewBox="0 0 49 66" fill="none" xmlns="http://www.w3.org/2000/svg">
<g clip-path="url(#clip0_196_19967)">
<g clip-path="url(#clip1_196_19967)">
<path d="M37.7493 0H22.1847L26.9951 14.9905H42.5599L29.9671 23.9298L34.7788 39.0053C42.8846 33.1005 45.5332 24.164 42.5612 14.9905L37.7493 0ZM1.80925 14.9905H17.374L22.1847 0H6.62121L1.80925 14.9905ZM1.80925 14.9905C-1.16423 24.164 1.48588 33.1006 9.59148 39.0053L14.4021 23.9299L1.80925 14.9905ZM9.59165 39.0053L22.1845 47.9266L34.7773 39.0053L22.1845 29.9363L9.59165 39.0053Z" fill="black"/>
</g>
<path d="M6.57812 56.3203C6.57812 58.043 7.45703 59.8828 9.25 60.6328L8.44141 61.8047C7.18164 61.2715 6.31445 60.2109 5.83984 58.9102C5.35352 60.3223 4.46875 61.4941 3.21484 62.0742L2.35938 60.8906C4.12891 60.1055 5.04297 58.125 5.04297 56.3203V55.6641H2.78125V54.4453H8.80469V55.6641H6.57812V56.3203ZM11.3711 53.4141V64.0781H9.85938V53.4141H11.3711ZM21.8008 53.4141V59.7422H20.3125V57.2227H18.6484V56.0156H20.3125V53.4141H21.8008ZM18.1562 59.9766C20.4297 59.9883 21.8242 60.7383 21.8359 62.0391C21.8242 63.3281 20.4297 64.0898 18.1562 64.0898C15.8828 64.0898 14.4883 63.3281 14.4883 62.0391C14.4883 60.7383 15.8828 59.9883 18.1562 59.9766ZM18.1562 61.125C16.7383 61.125 15.9766 61.418 15.9766 62.0391C15.9766 62.6484 16.7383 62.9531 18.1562 62.9531C19.5742 62.9531 20.3477 62.6484 20.3477 62.0391C20.3477 61.418 19.5742 61.125 18.1562 61.125ZM18.9648 54.0586V55.2539H16.8438C16.8789 56.4961 17.6289 57.75 19.293 58.3008L18.5547 59.4727C17.377 59.0918 16.5684 58.3184 16.1055 57.3516C15.6309 58.4414 14.7812 59.3203 13.5156 59.7539L12.7422 58.5703C14.4941 57.9844 15.2793 56.5898 15.3203 55.2539H13.1758V54.0586H18.9648ZM34.9375 53.4141V59.7422H33.4492V57.2227H31.7852V56.0156H33.4492V53.4141H34.9375ZM31.293 59.9766C33.5664 59.9883 34.9609 60.7383 34.9727 62.0391C34.9609 63.3281 33.5664 64.0898 31.293 64.0898C29.0195 64.0898 27.625 63.3281 27.625 62.0391C27.625 60.7383 29.0195 59.9883 31.293 59.9766ZM31.293 61.125C29.875 61.125 29.1133 61.418 29.1133 62.0391C29.1133 62.6484 29.875 62.9531 31.293 62.9531C32.7109 62.9531 33.4844 62.6484 33.4844 62.0391C33.4844 61.418 32.7109 61.125 31.293 61.125ZM32.1016 54.0586V55.2539H29.9805C30.0156 56.4961 30.7656 57.75 32.4297 58.3008L31.6914 59.4727C30.5137 59.0918 29.7051 58.3184 29.2422 57.3516C28.7676 58.4414 27.918 59.3203 26.6523 59.7539L25.8789 58.5703C27.6309 57.9844 28.416 56.5898 28.457 55.2539H26.3125V54.0586H32.1016ZM45.25 53.4141V64.1016H43.7383V53.4141H45.25ZM38.3477 54.2578V56.8594H40.6445V54.2578H42.1211V61.6055H36.8477V54.2578H38.3477ZM38.3477 60.3984H40.6445V58.0195H38.3477V60.3984Z" fill="black"/>
</g>
<defs>
<clipPath id="clip0_196_19967">
<rect width="48" height="66" fill="white" transform="translate(0.625)"/>
</clipPath>
<clipPath id="clip1_196_19967">
<rect width="48" height="48" fill="white" transform="translate(0.625)"/>
</clipPath>
</defs>
</svg>
