<svg width="49" height="66" viewBox="0 0 49 66" fill="none" xmlns="http://www.w3.org/2000/svg">
<g clip-path="url(#clip0_7_14378)">
<g clip-path="url(#clip1_7_14378)">
<path d="M41.905 5.75992V1.91992H7.345V5.75992H0.625V47.0399H4.465V9.59992H7.345V13.4399H41.905V9.59992H44.785V47.0399H48.625V5.75992H41.905ZM40.9949 27.8399L34.7309 17.1599C34.4823 16.6982 33.8573 16.3199 33.3428 16.3199H15.9063C15.3917 16.3199 14.7668 16.6982 14.5191 17.1599L8.25604 27.8399C7.22692 27.8399 6.385 28.7039 6.385 29.7599V39.3599C6.385 40.4159 7.22692 41.2799 8.25604 41.2799H10.225V44.1599C10.225 45.7439 11.3895 47.0399 12.9322 47.0399H13.8682C15.4109 47.0399 16.945 45.7439 16.945 44.1599V41.2799H32.305V44.1599C32.305 45.7439 33.8381 47.0399 35.3818 47.0399H36.3178C37.8605 47.0399 39.025 45.7439 39.025 44.1599V41.2799H40.9949C42.0231 41.2799 42.865 40.4159 42.865 39.3599V29.7599C42.865 28.7039 42.0231 27.8399 40.9949 27.8399ZM11.5296 35.5199C10.2384 35.5199 9.19108 34.4457 9.19108 33.1199C9.19108 31.7942 10.2384 30.7199 11.5296 30.7199C12.8218 30.7199 13.8682 31.7942 13.8682 33.1199C13.8682 34.4457 12.8218 35.5199 11.5296 35.5199ZM12.9322 27.8399L17.1908 20.0582C17.4212 19.5858 18.0308 19.1999 18.5444 19.1999H30.7047C31.2192 19.1999 31.8288 19.5858 32.0583 20.0582L36.3178 27.8399H12.9322ZM37.7204 35.5199C36.4292 35.5199 35.3818 34.4457 35.3818 33.1199C35.3818 31.7942 36.4292 30.7199 37.7204 30.7199C39.0125 30.7199 40.0599 31.7942 40.0599 33.1199C40.0599 34.4457 39.0116 35.5199 37.7204 35.5199Z" fill="black"/>
</g>
<path d="M7.87891 56.3203C7.86719 57.9492 8.73438 59.8242 10.4922 60.6328L9.66016 61.8047C8.4707 61.2598 7.62109 60.1699 7.15234 58.8867C6.67188 60.2988 5.79883 61.4941 4.5625 62.0742L3.69531 60.8906C5.47656 60.0586 6.36719 58.0781 6.37891 56.3203V55.6641H4.11719V54.4453H10.0234V55.6641H7.87891V56.3203ZM12.3555 53.4141V57.4805H13.9258V58.7344H12.3555V64.0781H10.8555V53.4141H12.3555ZM24.0625 58.4531V59.625H14.3125V58.4531H18.4609V57.5391H15.4961V53.8828H22.8906V55.043H16.9844V56.3672H22.9492V57.5391H19.9258V58.4531H24.0625ZM19.1641 60.1641C21.4727 60.1641 22.8672 60.8672 22.8789 62.1328C22.8672 63.375 21.4727 64.0898 19.1641 64.0898C16.832 64.0898 15.4258 63.375 15.4258 62.1328C15.4258 60.8672 16.832 60.1641 19.1641 60.1641ZM19.1641 61.3008C17.6875 61.3008 16.9375 61.582 16.9492 62.1328C16.9375 62.6953 17.6875 62.9531 19.1641 62.9531C20.6055 62.9531 21.3672 62.6953 21.3789 62.1328C21.3672 61.582 20.6055 61.3008 19.1641 61.3008ZM28.1055 56.0977C28.1055 57.8203 28.5859 59.6016 30.0391 60.5391L29.2305 61.6992C28.3105 61.1426 27.7246 60.2285 27.3906 59.1328C27.0039 60.3398 26.3652 61.3477 25.3984 61.9336L24.4844 60.832C26.0664 59.8477 26.6523 57.9727 26.6523 56.168V54.3281H28.1055V56.0977ZM33.9297 53.4141V64.0781H32.5V53.4141H33.9297ZM31.6914 53.5664V63.5859H30.2969V58.2305H28.9141V57.0117H30.2969V53.5664H31.6914ZM38.9102 56.7539C38.9102 58.2656 39.6953 59.9883 41.3945 60.7852L40.5625 61.9102C39.4258 61.4004 38.6348 60.3926 38.1836 59.2031C37.7266 60.4863 36.8828 61.5703 35.6758 62.0977L34.8555 60.9375C36.5898 60.1758 37.4219 58.3594 37.4336 56.7539V56.3438H35.2305V55.1484H37.4219V53.6484H38.9219V55.1484H41.0898V56.3438H38.9102V56.7539ZM43.4688 53.4141V57.5508H45.0391V58.8047H43.4688V64.0781H41.9688V53.4141H43.4688Z" fill="black"/>
</g>
<defs>
<clipPath id="clip0_7_14378">
<rect width="48" height="66" fill="white" transform="translate(0.625)"/>
</clipPath>
<clipPath id="clip1_7_14378">
<rect width="48" height="48" fill="white" transform="translate(0.625)"/>
</clipPath>
</defs>
</svg>
