<svg width="49" height="66" viewBox="0 0 49 66" fill="none" xmlns="http://www.w3.org/2000/svg">
<g clip-path="url(#clip0_19_6851)">
<path d="M18.625 24H18.645M30.625 24H30.645M20.625 32C21.625 32.6 23.025 33 24.625 33C26.225 33 27.625 32.6 28.625 32M38.625 12.6C40.4369 14.8713 41.6721 17.5476 42.225 20.4C42.9013 20.7275 43.4716 21.239 43.8707 21.8756C44.2698 22.5123 44.4814 23.2486 44.4814 24C44.4814 24.7514 44.2698 25.4877 43.8707 26.1244C43.4716 26.761 42.9013 27.2725 42.225 27.6C41.3616 31.627 39.1433 35.2361 35.9404 37.8251C32.7374 40.4141 28.7435 41.8264 24.625 41.8264C20.5065 41.8264 16.5126 40.4141 13.3096 37.8251C10.1067 35.2361 7.88841 31.627 7.025 27.6C6.34871 27.2725 5.77836 26.761 5.37929 26.1244C4.98022 25.4877 4.76855 24.7514 4.76855 24C4.76855 23.2486 4.98022 22.5123 5.37929 21.8756C5.77836 21.239 6.34871 20.7275 7.025 20.4C7.85352 16.341 10.0568 12.692 13.263 10.0687C16.4693 7.44542 20.4823 6.00836 24.625 6C28.625 6 31.625 8.2 31.625 11C31.625 13.8 29.825 16 27.625 16C26.025 16 24.625 15.2 24.625 14" stroke="black" stroke-width="4" stroke-linecap="round" stroke-linejoin="round"/>
<path d="M13.6914 59.3438V60.5508H11.4062V64.0781H9.88281V60.5508H7.70312V64.0781H6.16797V60.5508H3.92969V59.3438H13.6914ZM8.78125 53.7656C11.0664 53.7656 12.6719 54.7148 12.6719 56.1797C12.6719 57.6211 11.0664 58.5234 8.78125 58.5234C6.49609 58.5234 4.90234 57.6211 4.91406 56.1797C4.90234 54.7148 6.49609 53.7656 8.78125 53.7656ZM8.78125 54.9609C7.35156 54.9609 6.4375 55.3945 6.44922 56.1797C6.4375 56.9297 7.35156 57.3516 8.78125 57.3516C10.2227 57.3516 11.125 56.9297 11.125 56.1797C11.125 55.3945 10.2227 54.9609 8.78125 54.9609ZM17.1836 54.1641C18.8125 54.1641 19.9844 55.6406 19.9961 57.9609C19.9844 60.3047 18.8125 61.7695 17.1836 61.7695C15.5547 61.7695 14.3594 60.3047 14.3711 57.9609C14.3594 55.6406 15.5547 54.1641 17.1836 54.1641ZM17.1836 55.5117C16.3633 55.5117 15.8125 56.3789 15.8125 57.9609C15.8125 59.5547 16.3633 60.4102 17.1836 60.4102C18.0156 60.4102 18.5547 59.5547 18.5664 57.9609C18.5547 56.3789 18.0156 55.5117 17.1836 55.5117ZM22.7266 53.4141V57.4336H24.2969V58.6758H22.7266V64.0781H21.2266V53.4141H22.7266ZM28.832 55.8281C28.832 57.7852 29.7227 59.7539 31.5273 60.5156L30.6484 61.7109C29.4297 61.1602 28.5859 60.0996 28.1055 58.7812C27.6191 60.2168 26.7461 61.377 25.4453 61.9688L24.543 60.7266C26.4062 59.9414 27.3086 57.9023 27.3203 55.8281V54.2344H28.832V55.8281ZM33.6133 53.4141V64.1016H32.1016V53.4141H33.6133ZM44.043 53.4141V58.8398H42.5547V56.1914H40.5508V55.0078H42.5547V53.4141H44.043ZM44.043 59.2852V62.1328H38.4414V62.7891H44.3477V63.9609H36.9648V61.043H42.5664V60.4336H36.9531V59.2852H44.043ZM39.0508 54.5391C39.0391 55.8164 39.7891 57.0469 41.4883 57.5508L40.7031 58.6992C39.5605 58.3301 38.7637 57.6152 38.3008 56.6953C37.8379 57.7207 36.9941 58.5293 35.7461 58.9219L34.9727 57.7383C36.7422 57.2227 37.5273 55.9219 37.5391 54.5391V53.7656H39.0508V54.5391Z" fill="black"/>
</g>
<defs>
<clipPath id="clip0_19_6851">
<rect width="48" height="66" fill="white" transform="translate(0.625)"/>
</clipPath>
</defs>
</svg>
