<svg width="49" height="66" viewBox="0 0 49 66" fill="none" xmlns="http://www.w3.org/2000/svg">
<g clip-path="url(#clip0_120_14515)">
<g clip-path="url(#clip1_120_14515)">
<path d="M42.625 17.5594C42.5074 14.654 41.2709 11.9066 39.1741 9.89195C37.0774 7.87731 34.2828 6.75149 31.375 6.75C30.3804 6.75 29.4266 7.14509 28.7234 7.84835C28.0201 8.55161 27.625 9.50544 27.625 10.5V32.25H24.625V13.5C24.625 12.9033 24.3879 12.331 23.966 11.909C23.544 11.4871 22.9717 11.25 22.375 11.25H4.375C3.38044 11.25 2.42661 11.6451 1.72335 12.3483C1.02009 13.0516 0.625 14.0054 0.625 15L0.625 34.5C0.626187 35.8025 1.0042 37.0769 1.71344 38.1693C2.42268 39.2618 3.43286 40.1258 4.62213 40.657C5.8114 41.1882 7.12896 41.364 8.4159 41.1631C9.70283 40.9623 10.9042 40.3933 11.875 39.525C12.7008 40.264 13.6958 40.7884 14.7722 41.0518C15.8486 41.3151 16.9733 41.3095 18.0471 41.0352C19.1208 40.7609 20.1104 40.2265 20.9287 39.4792C21.7469 38.7318 22.3686 37.7945 22.7388 36.75H35.5112C36.0421 38.2511 37.0865 39.5162 38.4599 40.3217C39.8333 41.1273 41.4472 41.4214 43.0165 41.1522C44.5857 40.8829 46.0093 40.0676 47.0356 38.8504C48.0619 37.6331 48.6249 36.0922 48.625 34.5V25.5C48.6233 23.7043 48.0368 21.958 46.9542 20.5253C45.8717 19.0926 44.352 18.0515 42.625 17.5594ZM32.125 11.2913C33.7742 11.4781 35.297 12.2651 36.4035 13.5022C37.5099 14.7394 38.1227 16.3403 38.125 18V19.5C38.125 20.0967 38.3621 20.669 38.784 21.091C39.206 21.5129 39.7783 21.75 40.375 21.75C41.3696 21.75 42.3234 22.1451 43.0266 22.8484C43.7299 23.5516 44.125 24.5054 44.125 25.5V28.1362C42.4372 27.5396 40.5816 27.6378 38.9662 28.4092C37.3508 29.1807 36.108 30.5623 35.5112 32.25H32.125V11.2913ZM20.125 15.75V28.89C18.8806 28.0562 17.3938 27.661 15.8996 27.767C14.4055 27.8729 12.9893 28.4739 11.875 29.475C10.9741 28.6658 9.87169 28.1144 8.68383 27.8788C7.49597 27.6432 6.26657 27.7321 5.125 28.1362V15.75H20.125ZM7.375 36.75C6.92999 36.75 6.49498 36.618 6.12497 36.3708C5.75496 36.1236 5.46657 35.7722 5.29627 35.361C5.12597 34.9499 5.08142 34.4975 5.16823 34.061C5.25505 33.6246 5.46934 33.2237 5.78401 32.909C6.09868 32.5943 6.49959 32.38 6.93605 32.2932C7.3725 32.2064 7.8249 32.251 8.23604 32.4213C8.64717 32.5916 8.99857 32.88 9.24581 33.25C9.49304 33.62 9.625 34.055 9.625 34.5C9.625 35.0967 9.38795 35.669 8.96599 36.091C8.54403 36.5129 7.97174 36.75 7.375 36.75ZM16.375 36.75C15.93 36.75 15.495 36.618 15.125 36.3708C14.755 36.1236 14.4666 35.7722 14.2963 35.361C14.126 34.9499 14.0814 34.4975 14.1682 34.061C14.255 33.6246 14.4693 33.2237 14.784 32.909C15.0987 32.5943 15.4996 32.38 15.936 32.2932C16.3725 32.2064 16.8249 32.251 17.236 32.4213C17.6472 32.5916 17.9986 32.88 18.2458 33.25C18.493 33.62 18.625 34.055 18.625 34.5C18.625 35.0967 18.3879 35.669 17.966 36.091C17.544 36.5129 16.9717 36.75 16.375 36.75ZM41.875 36.75C41.43 36.75 40.995 36.618 40.625 36.3708C40.255 36.1236 39.9666 35.7722 39.7963 35.361C39.626 34.9499 39.5814 34.4975 39.6682 34.061C39.7551 33.6246 39.9693 33.2237 40.284 32.909C40.5987 32.5943 40.9996 32.38 41.436 32.2932C41.8725 32.2064 42.3249 32.251 42.736 32.4213C43.1472 32.5916 43.4986 32.88 43.7458 33.25C43.993 33.62 44.125 34.055 44.125 34.5C44.125 35.0967 43.8879 35.669 43.466 36.091C43.044 36.5129 42.4717 36.75 41.875 36.75Z" fill="#1E1E1E"/>
</g>
<path d="M13.6914 58.6055V59.8008H9.64844V61.6523H8.13672V59.8008H3.92969V58.6055H13.6914ZM12.6133 62.6836V63.8906H5.08984V60.7031H6.60156V62.6836H12.6133ZM8.80469 53.6133C11.1133 53.625 12.6484 54.4805 12.6602 55.8281C12.6484 57.1875 11.1133 58.0312 8.80469 58.0312C6.48438 58.0312 4.9375 57.1875 4.9375 55.8281C4.9375 54.4805 6.48438 53.625 8.80469 53.6133ZM8.80469 54.7969C7.42188 54.7969 6.54297 55.1484 6.55469 55.8281C6.54297 56.4844 7.42188 56.8359 8.80469 56.8359C10.1758 56.8359 11.0547 56.4844 11.0547 55.8281C11.0547 55.1484 10.1758 54.7969 8.80469 54.7969ZM19.9727 54.2461C19.9727 55.5 21.25 56.8945 23.6992 57.1992L23.1133 58.4062C21.25 58.1367 19.8848 57.2754 19.1875 56.1211C18.4844 57.2754 17.1309 58.1367 15.2852 58.4062L14.6875 57.1992C17.1133 56.8945 18.4023 55.5 18.4023 54.2461V53.7305H19.9727V54.2461ZM24.0391 59.2148V60.4336H19.8906V64.0781H18.4141V60.4336H14.3125V59.2148H24.0391ZM28.1055 56.0977C28.1055 57.8203 28.5859 59.6016 30.0391 60.5391L29.2305 61.6992C28.3105 61.1426 27.7246 60.2285 27.3906 59.1328C27.0039 60.3398 26.3652 61.3477 25.3984 61.9336L24.4844 60.832C26.0664 59.8477 26.6523 57.9727 26.6523 56.168V54.3281H28.1055V56.0977ZM33.9297 53.4141V64.0781H32.5V53.4141H33.9297ZM31.6914 53.5664V63.5859H30.2969V58.2305H28.9141V57.0117H30.2969V53.5664H31.6914ZM38.9102 56.7539C38.9102 58.2656 39.6953 59.9883 41.3945 60.7852L40.5625 61.9102C39.4258 61.4004 38.6348 60.3926 38.1836 59.2031C37.7266 60.4863 36.8828 61.5703 35.6758 62.0977L34.8555 60.9375C36.5898 60.1758 37.4219 58.3594 37.4336 56.7539V56.3438H35.2305V55.1484H37.4219V53.6484H38.9219V55.1484H41.0898V56.3438H38.9102V56.7539ZM43.4688 53.4141V57.5508H45.0391V58.8047H43.4688V64.0781H41.9688V53.4141H43.4688Z" fill="black"/>
</g>
<defs>
<clipPath id="clip0_120_14515">
<rect width="48" height="66" fill="white" transform="translate(0.625)"/>
</clipPath>
<clipPath id="clip1_120_14515">
<rect width="48" height="48" fill="white" transform="translate(0.625)"/>
</clipPath>
</defs>
</svg>
