<svg width="49" height="66" viewBox="0 0 49 66" fill="none" xmlns="http://www.w3.org/2000/svg">
<g clip-path="url(#clip0_19_7381)">
<path d="M4.62501 12H38.625C40.2163 12 41.7424 12.6321 42.8676 13.7574C43.9929 14.8826 44.625 16.4087 44.625 18C44.625 19.5913 43.9929 21.1174 42.8676 22.2426C41.7424 23.3679 40.2163 24 38.625 24H36.121C35.1506 27.7743 32.836 31.0647 29.6118 33.2536C26.3875 35.4424 22.4752 36.3793 18.6092 35.8883C14.7432 35.3973 11.1893 33.5123 8.61451 30.5869C6.03974 27.6616 4.62116 23.8971 4.62501 20V12ZM36.625 20H38.625C39.1554 20 39.6642 19.7893 40.0392 19.4142C40.4143 19.0391 40.625 18.5304 40.625 18C40.625 17.4696 40.4143 16.9609 40.0392 16.5858C39.6642 16.2107 39.1554 16 38.625 16H36.625V20Z" fill="black"/>
<path d="M20.0078 54.4336C19.9961 57.7266 19.1992 60.4688 15.2148 62.4609L14.3945 61.3359C16.1758 60.4512 17.2363 59.4609 17.8398 58.2773L14.6875 58.5703L14.5 57.293L18.2969 57.0586C18.4023 56.6133 18.4785 56.1328 18.5195 55.6289H15.0625V54.4336H20.0078ZM22.8555 53.4141V57.5039H24.3672V58.7344H22.8555V64.0547H21.3555V53.4141H22.8555ZM34.1406 53.4141V64.0781H32.6992V53.4141H34.1406ZM31.9844 53.625V63.5742H30.5664V58.6289H29.5352V57.293H30.5664V53.625H31.9844ZM29.7812 54.6211V55.8281H29.1016V60.2578C29.4004 60.2344 29.6875 60.2051 29.957 60.1641L30.0625 61.2422C28.375 61.6055 26.1953 61.6406 24.8594 61.6406L24.6953 60.4102H25.5859V55.8281H24.8945V54.6211H29.7812ZM26.9102 60.3867L27.7422 60.3516V55.8281H26.9102V60.3867Z" fill="black"/>
</g>
<defs>
<clipPath id="clip0_19_7381">
<rect width="48" height="66" fill="white" transform="translate(0.625)"/>
</clipPath>
</defs>
</svg>
