<svg width="49" height="66" viewBox="0 0 49 66" fill="none" xmlns="http://www.w3.org/2000/svg">
<g clip-path="url(#clip0_19_7371)">
<path d="M42.625 30C42.625 20.75 35.611 13.118 26.625 12.118V8H22.625V12.118C13.639 13.118 6.625 20.75 6.625 30V34H42.625V30ZM4.625 36H44.625V40H4.625V36Z" fill="black"/>
<path d="M19.832 54.1523V59.0742H14.7578V54.1523H19.832ZM16.2344 55.3359V57.8906H18.3555V55.3359H16.2344ZM22.9023 53.4141V56.0742H24.3438V57.3164H22.9023V60.457H21.4023V53.4141H22.9023ZM20.2188 60.2227C20.2188 61.4062 21.3438 62.5664 23.6172 62.8594L23.0312 64.0312C21.3613 63.7734 20.1426 63.0527 19.4922 62.0508C18.8418 63.0527 17.623 63.7734 15.9414 64.0312L15.3672 62.8594C17.6172 62.5664 18.7422 61.4062 18.7422 60.2227V59.9531H20.2188V60.2227ZM31.1172 54V55.1953H28.9844C29.0547 56.3203 29.8574 57.4453 31.5273 57.9023L30.7773 59.0625C29.5586 58.7168 28.7031 57.9844 28.2227 57.0469C27.7363 58.0605 26.8633 58.8633 25.5977 59.25L24.8477 58.0781C26.5469 57.5859 27.373 56.4023 27.4492 55.1953H25.2578V54H31.1172ZM33.7422 53.4141V59.2031H32.2422V53.4141H33.7422ZM28.082 59.6484V60.6445H32.2539V59.6484H33.7422V63.9609H26.6055V59.6484H28.082ZM28.082 62.7656H32.2539V61.8047H28.082V62.7656Z" fill="black"/>
</g>
<defs>
<clipPath id="clip0_19_7371">
<rect width="48" height="66" fill="white" transform="translate(0.625)"/>
</clipPath>
</defs>
</svg>
