<svg width="49" height="66" viewBox="0 0 49 66" fill="none" xmlns="http://www.w3.org/2000/svg">
<g clip-path="url(#clip0_7_14373)">
<path d="M14.625 23V28M14.625 23V11C14.625 10.2044 14.9411 9.44129 15.5037 8.87868C16.0663 8.31607 16.8294 8 17.625 8C18.4206 8 19.1837 8.31607 19.7463 8.87868C20.3089 9.44129 20.625 10.2044 20.625 11M14.625 23C14.625 22.2044 14.3089 21.4413 13.7463 20.8787C13.1837 20.3161 12.4206 20 11.625 20C10.8294 20 10.0663 20.3161 9.50368 20.8787C8.94107 21.4413 8.625 22.2044 8.625 23V27C8.625 30.9782 10.2054 34.7936 13.0184 37.6066C15.8314 40.4196 19.6468 42 23.625 42C27.6032 42 31.4186 40.4196 34.2316 37.6066C37.0446 34.7936 38.625 30.9782 38.625 27V17C38.625 16.2044 38.3089 15.4413 37.7463 14.8787C37.1837 14.3161 36.4206 14 35.625 14C34.8294 14 34.0663 14.3161 33.5037 14.8787C32.9411 15.4413 32.625 16.2044 32.625 17M20.625 11V22M20.625 11V9C20.625 8.20435 20.9411 7.44129 21.5037 6.87868C22.0663 6.31607 22.8294 6 23.625 6C24.4206 6 25.1837 6.31607 25.7463 6.87868C26.3089 7.44129 26.625 8.20435 26.625 9V11M32.625 17V11C32.625 10.2044 32.3089 9.44129 31.7463 8.87868C31.1837 8.31607 30.4206 8 29.625 8C28.8294 8 28.0663 8.31607 27.5037 8.87868C26.9411 9.44129 26.625 10.2044 26.625 11M32.625 17V22M26.625 11V22" stroke="black" stroke-width="4" stroke-linecap="round" stroke-linejoin="round"/>
<path d="M17.5664 62.6953V63.8906H10.1133V60.7969H11.6133V62.6953H17.5664ZM18.668 58.9453V60.1406H8.94141V58.9453H13.0547V57.4336H14.5312V58.9453H18.668ZM14.5547 54.0469C14.5547 55.3711 15.7266 56.6133 18.1289 56.918L17.5547 58.0898C15.7559 57.8027 14.4492 57.0234 13.7812 55.9219C13.1074 57.0176 11.8184 57.8203 10.043 58.0898L9.45703 56.918C11.8125 56.5898 13.0312 55.3008 13.0312 54.0469V53.7188H14.5547V54.0469ZM22.7344 56.0977C22.7344 57.8203 23.2148 59.6016 24.668 60.5391L23.8594 61.6992C22.9395 61.1426 22.3535 60.2285 22.0195 59.1328C21.6328 60.3398 20.9941 61.3477 20.0273 61.9336L19.1133 60.832C20.6953 59.8477 21.2812 57.9727 21.2812 56.168V54.3281H22.7344V56.0977ZM28.5586 53.4141V64.0781H27.1289V53.4141H28.5586ZM26.3203 53.5664V63.5859H24.9258V58.2305H23.543V57.0117H24.9258V53.5664H26.3203ZM33.5391 56.7539C33.5391 58.2656 34.3242 59.9883 36.0234 60.7852L35.1914 61.9102C34.0547 61.4004 33.2637 60.3926 32.8125 59.2031C32.3555 60.4863 31.5117 61.5703 30.3047 62.0977L29.4844 60.9375C31.2188 60.1758 32.0508 58.3594 32.0625 56.7539V56.3438H29.8594V55.1484H32.0508V53.6484H33.5508V55.1484H35.7188V56.3438H33.5391V56.7539ZM38.0977 53.4141V57.5508H39.668V58.8047H38.0977V64.0781H36.5977V53.4141H38.0977Z" fill="black"/>
</g>
<defs>
<clipPath id="clip0_7_14373">
<rect width="48" height="66" fill="white" transform="translate(0.625)"/>
</clipPath>
</defs>
</svg>
