<svg width="53" height="66" viewBox="0 0 53 66" fill="none" xmlns="http://www.w3.org/2000/svg">
<g clip-path="url(#clip0_19_6875)">
<path d="M31.9295 44.0687V10.4601L22.0046 4.39157C21.6635 4.17043 21.2615 4.02985 20.88 3.92871V38.001L31.0046 43.6667C31.299 43.8304 31.6088 43.9647 31.9295 44.0679M8.00232 43.4653C8.52518 43.4653 9.02746 43.305 9.69089 42.9424L18.1277 38.403V4.29214C17.766 4.47214 17.3846 4.67357 17.0032 4.89471L7.48032 10.3393C6.27518 11.0216 5.71289 11.9859 5.71289 13.3324V41.1553C5.71289 42.6424 6.57603 43.4661 8.00318 43.4661M34.6826 44.0284C34.8832 43.9684 35.0837 43.8879 35.2852 43.7473L45.7912 37.7816C46.9766 37.1181 47.5397 36.153 47.5397 34.8073V6.94414C47.5397 5.457 46.6955 4.65385 45.2495 4.65385C44.7472 4.65385 44.2252 4.79442 43.5815 5.15614L34.6826 10.0967V44.0284Z" fill="black"/>
<path d="M6.91797 54.1875V54.8555C6.91797 55.5938 6.91797 56.6602 6.67188 57.9844L5.20703 57.8438C5.39453 56.8184 5.44141 56.0449 5.45312 55.4062H1.43359V54.1875H6.91797ZM4.26953 56.6484V58.6875C5.33008 58.6465 6.41992 58.5645 7.42188 58.418L7.50391 59.4961C5.28906 59.9062 2.78125 59.9414 0.929688 59.9531L0.800781 58.7578C1.39844 58.7578 2.07227 58.7578 2.78125 58.7344V56.6484H4.26953ZM9.53125 53.4141V56.6602H10.8203V57.9141H9.53125V61.3945H7.99609V53.4141H9.53125ZM9.85938 62.6953V63.8906H2.37109V60.6797H3.87109V62.6953H9.85938ZM17.3125 54V54.6914C17.3008 55.3828 17.3008 56.332 17.0547 57.4922L15.5898 57.3867C15.7598 56.4902 15.8008 55.793 15.8125 55.1953H11.8047V54H17.3125ZM14.6406 56.3789V58.2188C15.707 58.1836 16.791 58.1133 17.793 57.9961L17.875 59.0391C15.6602 59.4258 13.2227 59.4844 11.3008 59.4844L11.1719 58.2891C11.7812 58.2832 12.4492 58.2832 13.1523 58.2656V56.3789H14.6406ZM19.9023 53.4141V56.0391H21.2031V57.2812H19.9023V59.918H18.3672V53.4141H19.9023ZM16.2695 60.0469C18.5547 60.0469 19.9727 60.8086 19.9727 62.0273C19.9727 63.3164 18.5547 64.0547 16.2695 64.0547C13.9844 64.0547 12.5547 63.3164 12.5547 62.0273C12.5547 60.8086 13.9844 60.0469 16.2695 60.0469ZM16.2695 61.1953C14.8633 61.1953 14.0781 61.4883 14.0781 62.0273C14.0781 62.6367 14.8633 62.8945 16.2695 62.8945C17.6641 62.8945 18.4375 62.6367 18.4375 62.0273C18.4375 61.4883 17.6641 61.1953 16.2695 61.1953ZM30.1445 53.4141V56.4727H31.5859V57.7148H30.1445V61.1836H28.6445V53.4141H30.1445ZM30.5312 62.6953V63.8906H23.2305V60.3633H24.7188V62.6953H30.5312ZM24.6836 54.1055C26.3125 54.1055 27.5898 55.2305 27.5898 56.8125C27.5898 58.3711 26.3125 59.5195 24.6836 59.5195C23.043 59.5195 21.7539 58.3711 21.7539 56.8125C21.7539 55.2305 23.043 54.1055 24.6836 54.1055ZM24.6836 55.4062C23.875 55.3945 23.2188 55.9219 23.2305 56.8125C23.2188 57.6797 23.875 58.2188 24.6836 58.2188C25.5039 58.2188 26.125 57.6797 26.1367 56.8125C26.125 55.9219 25.5039 55.3945 24.6836 55.4062ZM41.2539 53.4141V64.0781H39.8125V58.7461H38.8164V63.5625H37.4102V53.5898H38.8164V57.5391H39.8125V53.4141H41.2539ZM33.9883 54.5977V60.1641C34.8438 60.1465 35.7812 60.0703 36.8125 59.8711L36.9648 61.1602C35.5352 61.4062 34.3164 61.4766 33.2148 61.4766H32.4883V54.5977H33.9883ZM52.1875 61.6055V62.8008H42.4258V61.6055H46.5039V59.1914H47.9922V61.6055H52.1875ZM48.0391 54.7852C48.0391 56.3086 49.4102 57.9141 51.8477 58.2891L51.2148 59.5312C49.3398 59.1914 47.9453 58.1895 47.2422 56.8594C46.5391 58.1836 45.1562 59.1973 43.293 59.5312L42.6602 58.2891C45.0742 57.9141 46.4336 56.2969 46.4453 54.7852V54.0234H48.0391V54.7852Z" fill="black"/>
</g>
<defs>
<clipPath id="clip0_19_6875">
<rect width="52" height="66" fill="white" transform="translate(0.625)"/>
</clipPath>
</defs>
</svg>
