<svg width="49" height="66" viewBox="0 0 49 66" fill="none" xmlns="http://www.w3.org/2000/svg">
<g clip-path="url(#clip0_116_14131)">
<g clip-path="url(#clip1_116_14131)">
<path d="M10.625 25.9996L13.625 16.9996H35.625L38.625 25.9996M35.625 35.9996C34.8294 35.9996 34.0663 35.6835 33.5037 35.1209C32.9411 34.5583 32.625 33.7953 32.625 32.9996C32.625 32.204 32.9411 31.4409 33.5037 30.8783C34.0663 30.3157 34.8294 29.9996 35.625 29.9996C36.4206 29.9996 37.1837 30.3157 37.7463 30.8783C38.3089 31.4409 38.625 32.204 38.625 32.9996C38.625 33.7953 38.3089 34.5583 37.7463 35.1209C37.1837 35.6835 36.4206 35.9996 35.625 35.9996ZM13.625 35.9996C12.8294 35.9996 12.0663 35.6835 11.5037 35.1209C10.9411 34.5583 10.625 33.7953 10.625 32.9996C10.625 32.204 10.9411 31.4409 11.5037 30.8783C12.0663 30.3157 12.8294 29.9996 13.625 29.9996C14.4206 29.9996 15.1837 30.3157 15.7463 30.8783C16.3089 31.4409 16.625 32.204 16.625 32.9996C16.625 33.7953 16.3089 34.5583 15.7463 35.1209C15.1837 35.6835 14.4206 35.9996 13.625 35.9996ZM38.465 15.9996C38.065 14.8396 36.945 13.9996 35.625 13.9996H13.625C12.305 13.9996 11.185 14.8396 10.785 15.9996L6.625 27.9996V43.9996C6.625 44.53 6.83571 45.0388 7.21079 45.4138C7.58586 45.7889 8.09457 45.9996 8.625 45.9996H10.625C11.1554 45.9996 11.6641 45.7889 12.0392 45.4138C12.4143 45.0388 12.625 44.53 12.625 43.9996V41.9996H36.625V43.9996C36.625 44.53 36.8357 45.0388 37.2108 45.4138C37.5859 45.7889 38.0946 45.9996 38.625 45.9996H40.625C41.1554 45.9996 41.6641 45.7889 42.0392 45.4138C42.4143 45.0388 42.625 44.53 42.625 43.9996V27.9996M14.625 9.99961C15.4206 9.99961 16.1837 9.68354 16.7463 9.12093C17.3089 8.55832 17.625 7.79526 17.625 6.99961C17.625 4.99961 14.625 1.59961 14.625 1.59961C14.625 1.59961 11.625 4.99961 11.625 6.99961C11.625 7.79526 11.9411 8.55832 12.5037 9.12093C13.0663 9.68354 13.8294 9.99961 14.625 9.99961ZM24.625 9.99961C25.4206 9.99961 26.1837 9.68354 26.7463 9.12093C27.3089 8.55832 27.625 7.79526 27.625 6.99961C27.625 4.99961 24.625 1.59961 24.625 1.59961C24.625 1.59961 21.625 4.99961 21.625 6.99961C21.625 7.79526 21.9411 8.55832 22.5037 9.12093C23.0663 9.68354 23.8294 9.99961 24.625 9.99961ZM34.625 9.99961C35.4206 9.99961 36.1837 9.68354 36.7463 9.12093C37.3089 8.55832 37.625 7.79526 37.625 6.99961C37.625 4.99961 34.625 1.59961 34.625 1.59961C34.625 1.59961 31.625 4.99961 31.625 6.99961C31.625 7.79526 31.9411 8.55832 32.5037 9.12093C33.0663 9.68354 33.8294 9.99961 34.625 9.99961Z" fill="#1E1E1E"/>
</g>
<path d="M17.8633 56.0977C17.8633 57.8203 18.3438 59.6016 19.7969 60.5391L18.9883 61.6992C18.0684 61.1426 17.4824 60.2285 17.1484 59.1328C16.7617 60.3398 16.123 61.3477 15.1562 61.9336L14.2422 60.832C15.8242 59.8477 16.4102 57.9727 16.4102 56.168V54.3281H17.8633V56.0977ZM23.6875 53.4141V64.0781H22.2578V53.4141H23.6875ZM21.4492 53.5664V63.5859H20.0547V58.2305H18.6719V57.0117H20.0547V53.5664H21.4492ZM28.668 56.7539C28.668 58.2656 29.4531 59.9883 31.1523 60.7852L30.3203 61.9102C29.1836 61.4004 28.3926 60.3926 27.9414 59.2031C27.4844 60.4863 26.6406 61.5703 25.4336 62.0977L24.6133 60.9375C26.3477 60.1758 27.1797 58.3594 27.1914 56.7539V56.3438H24.9883V55.1484H27.1797V53.6484H28.6797V55.1484H30.8477V56.3438H28.668V56.7539ZM33.2266 53.4141V57.5508H34.7969V58.8047H33.2266V64.0781H31.7266V53.4141H33.2266Z" fill="black"/>
</g>
<defs>
<clipPath id="clip0_116_14131">
<rect width="48" height="66" fill="white" transform="translate(0.625)"/>
</clipPath>
<clipPath id="clip1_116_14131">
<rect width="48" height="48" fill="white" transform="translate(0.625)"/>
</clipPath>
</defs>
</svg>
