<svg width="49" height="66" viewBox="0 0 49 66" fill="none" xmlns="http://www.w3.org/2000/svg">
<g clip-path="url(#clip0_19_6864)">
<path fill-rule="evenodd" clip-rule="evenodd" d="M17.625 6C18.9511 6 20.2228 6.52678 21.1605 7.46447C22.0982 8.40215 22.625 9.67392 22.625 11V14H26.625V11C26.6248 9.73056 27.1075 8.50858 27.9751 7.58191C28.8427 6.65524 30.0303 6.09328 31.297 6.01L31.743 6C33.0019 6.0004 34.2287 6.39673 35.2499 7.1329C36.271 7.86907 37.0348 8.90779 37.433 10.102L43.837 29.312C44.386 30.5361 44.6543 31.8674 44.6225 33.2085C44.5906 34.5496 44.2593 35.8667 43.6529 37.0633C43.0465 38.2599 42.1802 39.3059 41.1174 40.1245C40.0547 40.9432 38.8224 41.514 37.5106 41.7951C36.1989 42.0761 34.8409 42.0604 33.536 41.749C32.2311 41.4376 31.0124 40.8385 29.9689 39.9954C28.9254 39.1523 28.0836 38.0866 27.505 36.8762C26.9264 35.6659 26.6258 34.3415 26.625 33V18H22.625V33C22.6242 34.3415 22.3236 35.6659 21.745 36.8762C21.1664 38.0866 20.3246 39.1523 19.2811 39.9954C18.2376 40.8385 17.0189 41.4376 15.714 41.749C14.4091 42.0604 13.0511 42.0761 11.7394 41.7951C10.4276 41.514 9.19531 40.9432 8.13257 40.1245C7.06983 39.3059 6.20355 38.2599 5.5971 37.0633C4.99066 35.8667 4.65939 34.5496 4.62754 33.2085C4.59568 31.8674 4.86405 30.5361 5.413 29.312L11.815 10.102C12.1937 8.96689 12.9032 7.97094 13.8522 7.24212C14.8013 6.5133 15.9466 6.08492 17.141 6.012L17.625 6ZM13.625 28C10.915 28 8.625 30.298 8.625 33C8.625 33.9889 8.91824 34.9556 9.46765 35.7779C10.0171 36.6001 10.798 37.241 11.7116 37.6194C12.6252 37.9978 13.6305 38.0969 14.6005 37.9039C15.5704 37.711 16.4613 37.2348 17.1605 36.5355C17.8598 35.8363 18.336 34.9454 18.5289 33.9755C18.7219 33.0055 18.6228 32.0002 18.2444 31.0866C17.866 30.173 17.2251 29.3921 16.4029 28.8427C15.5806 28.2932 14.6139 28 13.625 28ZM35.625 28C34.6361 28 33.6694 28.2932 32.8471 28.8427C32.0249 29.3921 31.384 30.173 31.0056 31.0866C30.6272 32.0002 30.5281 33.0055 30.7211 33.9755C30.914 34.9454 31.3902 35.8363 32.0895 36.5355C32.7887 37.2348 33.6796 37.711 34.6495 37.9039C35.6195 38.0969 36.6248 37.9978 37.5384 37.6194C38.452 37.241 39.2329 36.6001 39.7823 35.7779C40.3318 34.9556 40.625 33.9889 40.625 33C40.625 30.298 38.335 28 35.625 28Z" fill="black"/>
<path d="M17.9297 53.4258V61.207H16.4414V57.3867H14.6953V56.1797H16.4414V53.4258H17.9297ZM18.1875 62.6953V63.8906H10.8516V60.5273H12.3516V62.6953H18.1875ZM12.9727 55.5117C12.9727 56.7422 13.7227 58.0664 15.4219 58.6172L14.6836 59.8008C13.5 59.4199 12.6914 58.6406 12.2227 57.668C11.7539 58.7461 10.9043 59.6016 9.64453 60.0234L8.88281 58.8047C10.6406 58.2539 11.4375 56.8594 11.4492 55.5V55.3359H9.30469V54.1406H15.0938V55.3359H12.9727V55.5117ZM24.75 54.1875V58.9453H19.6289V54.1875H24.75ZM21.1055 55.3711V57.75H23.2734V55.3711H21.1055ZM27.7734 53.4141V55.8281H29.2148V57.0352H27.7734V59.6016H26.2734V53.4141H27.7734ZM24.2812 59.8711C26.4727 59.8711 27.8789 60.668 27.8789 61.9805C27.8789 63.3047 26.4727 64.0898 24.2812 64.0898C22.043 64.0898 20.625 63.3047 20.625 61.9805C20.625 60.668 22.043 59.8711 24.2812 59.8711ZM24.2812 61.0547C22.875 61.0547 22.1133 61.3711 22.125 61.9805C22.1133 62.6133 22.875 62.9062 24.2812 62.9062C25.6641 62.9062 26.4023 62.6133 26.4023 61.9805C26.4023 61.3711 25.6641 61.0547 24.2812 61.0547ZM38.9062 53.4141V64.0781H37.4883V58.7227H36.457V63.5625H35.0859V53.5898H36.457V57.5273H37.4883V53.4141H38.9062ZM33.9609 54.6445V55.8516H31.4883V60.3984C32.5195 60.3926 33.4336 60.3398 34.4648 60.1523L34.5703 61.3711C33.2695 61.6172 32.1328 61.6523 30.7266 61.6641H29.9883V54.6445H33.9609Z" fill="black"/>
</g>
<defs>
<clipPath id="clip0_19_6864">
<rect width="48" height="66" fill="white" transform="translate(0.625)"/>
</clipPath>
</defs>
</svg>
