<svg width="49" height="66" viewBox="0 0 49 66" fill="none" xmlns="http://www.w3.org/2000/svg">
<g clip-path="url(#clip0_196_18763)">
<path fill-rule="evenodd" clip-rule="evenodd" d="M16.625 4C23.2524 4 28.625 9.37262 28.625 16C28.625 17.2123 28.4452 18.3826 28.1109 19.4857L40.625 32C42.8341 34.2092 42.8341 37.7909 40.625 40C38.4159 42.2091 34.8341 42.2091 32.625 40L20.1107 27.4859C19.0076 27.8202 17.8373 28 16.625 28C9.99762 28 4.625 22.6274 4.625 16C4.625 14.7211 4.82506 13.4888 5.19566 12.333L10.872 18L16.4983 16.1262L16.7496 15.8749L18.625 10.2539L12.942 4.57591C14.1025 4.20203 15.3402 4 16.625 4Z" fill="#1E1E1E"/>
<path d="M17.9297 53.4141V59.7422H16.4414V57.2227H14.7773V56.0156H16.4414V53.4141H17.9297ZM14.2852 59.9766C16.5586 59.9883 17.9531 60.7383 17.9648 62.0391C17.9531 63.3281 16.5586 64.0898 14.2852 64.0898C12.0117 64.0898 10.6172 63.3281 10.6172 62.0391C10.6172 60.7383 12.0117 59.9883 14.2852 59.9766ZM14.2852 61.125C12.8672 61.125 12.1055 61.418 12.1055 62.0391C12.1055 62.6484 12.8672 62.9531 14.2852 62.9531C15.7031 62.9531 16.4766 62.6484 16.4766 62.0391C16.4766 61.418 15.7031 61.125 14.2852 61.125ZM15.0938 54.0586V55.2539H12.9727C13.0078 56.4961 13.7578 57.75 15.4219 58.3008L14.6836 59.4727C13.5059 59.0918 12.6973 58.3184 12.2344 57.3516C11.7598 58.4414 10.9102 59.3203 9.64453 59.7539L8.87109 58.5703C10.623 57.9844 11.4082 56.5898 11.4492 55.2539H9.30469V54.0586H15.0938ZM28.2422 53.4141V64.1016H26.7305V53.4141H28.2422ZM21.3398 54.2578V56.8594H23.6367V54.2578H25.1133V61.6055H19.8398V54.2578H21.3398ZM21.3398 60.3984H23.6367V58.0195H21.3398V60.3984ZM39.4453 61.6055V62.8008H29.6836V61.6055H33.7617V59.1914H35.25V61.6055H39.4453ZM35.2969 54.7852C35.2969 56.3086 36.668 57.9141 39.1055 58.2891L38.4727 59.5312C36.5977 59.1914 35.2031 58.1895 34.5 56.8594C33.7969 58.1836 32.4141 59.1973 30.5508 59.5312L29.918 58.2891C32.332 57.9141 33.6914 56.2969 33.7031 54.7852V54.0234H35.2969V54.7852Z" fill="black"/>
</g>
<defs>
<clipPath id="clip0_196_18763">
<rect width="48" height="66" fill="white" transform="translate(0.625)"/>
</clipPath>
</defs>
</svg>
