<svg width="49" height="66" viewBox="0 0 49 66" fill="none" xmlns="http://www.w3.org/2000/svg">
<g clip-path="url(#clip0_7_14383)">
<path d="M12.625 14.25V15H8.125V14.25C8.125 6.38437 14.5094 0 22.375 0H26.875C34.7406 0 41.125 6.38437 41.125 14.25V15H36.625V14.25C36.625 8.86875 32.2563 4.5 26.875 4.5H22.375C16.9937 4.5 12.625 8.86875 12.625 14.25ZM3.625 21C3.625 19.3406 4.96562 18 6.625 18H42.625C44.2844 18 45.625 19.3406 45.625 21C45.625 22.6594 44.2844 24 42.625 24H42.1469L40.0469 43.9688C39.8031 46.2562 37.8719 48 35.575 48H13.675C11.3687 48 9.4375 46.2656 9.20312 43.9688L7.10312 24H6.625C4.96562 24 3.625 22.6594 3.625 21Z" fill="black"/>
<path d="M7.30469 54.5625C7.30469 55.8398 7.83203 57.0469 9.20312 57.5977L8.41797 58.7109C7.52148 58.3418 6.93555 57.6855 6.60156 56.8594C6.2207 57.7969 5.58789 58.5762 4.64453 59.0273L3.78906 57.9023C5.27734 57.2344 5.85156 55.875 5.85156 54.5391V53.8125H7.30469V54.5625ZM13.1055 53.4258V58.9805H11.6875V53.4258H13.1055ZM10.9492 53.5781V58.9453H9.53125V56.2734H8.27734V55.0898H9.53125V53.5781H10.9492ZM13.1055 59.3672V62.2031H7.30469V62.8242H13.4688V64.0078H5.81641V61.1016H11.6289V60.5156H5.80469V59.3672H13.1055ZM24.0742 61.5938V62.8359H14.3125V61.5938H24.0742ZM23.2539 54.3516V55.5469H21.7539V58.7812H23.207V59.9531H15.1211V58.7812H16.5508V55.5469H15.0742V54.3516H23.2539ZM18.0508 58.7812H20.2773V55.5469H18.0508V58.7812ZM28.1055 56.0977C28.1055 57.8203 28.5859 59.6016 30.0391 60.5391L29.2305 61.6992C28.3105 61.1426 27.7246 60.2285 27.3906 59.1328C27.0039 60.3398 26.3652 61.3477 25.3984 61.9336L24.4844 60.832C26.0664 59.8477 26.6523 57.9727 26.6523 56.168V54.3281H28.1055V56.0977ZM33.9297 53.4141V64.0781H32.5V53.4141H33.9297ZM31.6914 53.5664V63.5859H30.2969V58.2305H28.9141V57.0117H30.2969V53.5664H31.6914ZM38.9102 56.7539C38.9102 58.2656 39.6953 59.9883 41.3945 60.7852L40.5625 61.9102C39.4258 61.4004 38.6348 60.3926 38.1836 59.2031C37.7266 60.4863 36.8828 61.5703 35.6758 62.0977L34.8555 60.9375C36.5898 60.1758 37.4219 58.3594 37.4336 56.7539V56.3438H35.2305V55.1484H37.4219V53.6484H38.9219V55.1484H41.0898V56.3438H38.9102V56.7539ZM43.4688 53.4141V57.5508H45.0391V58.8047H43.4688V64.0781H41.9688V53.4141H43.4688Z" fill="black"/>
</g>
<defs>
<clipPath id="clip0_7_14383">
<rect width="48" height="66" fill="white" transform="translate(0.625)"/>
</clipPath>
</defs>
</svg>
