<svg width="49" height="66" viewBox="0 0 49 66" fill="none" xmlns="http://www.w3.org/2000/svg">
<g clip-path="url(#clip0_19_6825)">
<path d="M14.625 14C16.8341 14 18.625 12.2091 18.625 10C18.625 7.79086 16.8341 6 14.625 6C12.4159 6 10.625 7.79086 10.625 10C10.625 12.2091 12.4159 14 14.625 14Z" fill="black"/>
<path d="M32.625 14C34.8341 14 36.625 12.2091 36.625 10C36.625 7.79086 34.8341 6 32.625 6C30.4159 6 28.625 7.79086 28.625 10C28.625 12.2091 30.4159 14 32.625 14Z" fill="black"/>
<path d="M9.625 20H19.625L17.625 42H11.625L9.625 20ZM27.625 20H37.625L39.625 31H36.625L35.625 42H29.625L28.625 31H25.625L27.625 20Z" fill="black"/>
<path d="M14.625 14C16.8341 14 18.625 12.2091 18.625 10C18.625 7.79086 16.8341 6 14.625 6C12.4159 6 10.625 7.79086 10.625 10C10.625 12.2091 12.4159 14 14.625 14Z" stroke="black" stroke-width="4" stroke-linecap="round" stroke-linejoin="round"/>
<path d="M32.625 14C34.8341 14 36.625 12.2091 36.625 10C36.625 7.79086 34.8341 6 32.625 6C30.4159 6 28.625 7.79086 28.625 10C28.625 12.2091 30.4159 14 32.625 14Z" stroke="black" stroke-width="4" stroke-linecap="round" stroke-linejoin="round"/>
<path d="M9.625 20H19.625L17.625 42H11.625L9.625 20ZM27.625 20H37.625L39.625 31H36.625L35.625 42H29.625L28.625 31H25.625L27.625 20Z" stroke="black" stroke-width="4" stroke-linecap="round" stroke-linejoin="round"/>
<path d="M17.4727 53.4141V57.75H18.8672V58.9922H17.4727V64.0781H15.9609V53.4141H17.4727ZM8.8125 61.0664C9.5918 61.0664 10.5 61.0664 11.4492 61.043V60.1289C10.3125 59.9062 9.57422 59.1855 9.58594 58.1953C9.57422 57 10.6523 56.1914 12.2109 56.1914C13.7344 56.1914 14.8242 57 14.8359 58.1953C14.8242 59.1855 14.0742 59.9121 12.9492 60.1289V60.9844C13.793 60.9434 14.6426 60.873 15.4336 60.7617L15.5273 61.8516C13.2539 62.2734 10.8164 62.2852 9.01172 62.2852L8.8125 61.0664ZM15.3516 54.5977V55.7695H9.02344V54.5977H11.4492V53.4727H12.9492V54.5977H15.3516ZM12.2109 57.3281C11.4844 57.3281 10.9922 57.6445 11.0039 58.1953C10.9922 58.7578 11.4844 59.0625 12.2109 59.0625C12.9141 59.0625 13.3945 58.7578 13.3945 58.1953C13.3945 57.6445 12.9141 57.3281 12.2109 57.3281ZM25.3711 54.1289V55.3242H23.25C23.2617 56.5664 24.0059 57.7676 25.7109 58.2656L24.9961 59.4375C23.8184 59.0801 23.0039 58.3652 22.5352 57.4453C22.0605 58.5234 21.1934 59.3789 19.9102 59.8008L19.1484 58.6172C20.918 58.0605 21.7148 56.6777 21.7383 55.3242H19.5586V54.1289H25.3711ZM27.7734 53.4141V55.8867H29.2148V57.1055H27.7734V59.7422H26.2734V53.4141H27.7734ZM24.2812 59.9531C26.4961 59.9414 27.8789 60.7031 27.8789 62.0039C27.8789 63.3047 26.4961 64.0781 24.2812 64.0781C22.0195 64.0781 20.625 63.3047 20.625 62.0039C20.625 60.7031 22.0195 59.9414 24.2812 59.9531ZM24.2812 61.1133C22.875 61.1133 22.1133 61.4062 22.125 62.0039C22.1133 62.6133 22.875 62.918 24.2812 62.918C25.6641 62.918 26.4023 62.6133 26.4023 62.0039C26.4023 61.4062 25.6641 61.1133 24.2812 61.1133ZM38.6016 53.4141V58.8164H37.1133V53.4141H38.6016ZM38.6133 59.2734V62.168H32.9414V62.8242H38.9062V64.0078H31.4766V61.0547H37.125V60.4336H31.4531V59.2734H38.6133ZM33.7734 54.4688C33.7617 55.7578 34.5352 57 36.2812 57.5039L35.5547 58.6523C34.3301 58.2949 33.4863 57.5566 33.0117 56.6133C32.5195 57.6445 31.6465 58.4648 30.375 58.8398L29.6367 57.668C31.418 57.1406 32.2148 55.793 32.2148 54.4688V53.6484H33.7734V54.4688Z" fill="black"/>
</g>
<defs>
<clipPath id="clip0_19_6825">
<rect width="48" height="66" fill="white" transform="translate(0.625)"/>
</clipPath>
</defs>
</svg>
